<?xml version="1.0" encoding="UTF-8"?>
<svg version="1.1" xmlns="http://www.w3.org/2000/svg" width="400" height="400">
<path d="M0 0 C1.09352783 -0.00807175 2.18705566 -0.01614349 3.3137207 -0.02445984 C5.63361035 -0.0382741 7.9535201 -0.04900811 10.2734375 -0.05688477 C12.60422893 -0.06830076 14.93499644 -0.08858328 17.265625 -0.1184082 C37.42810967 -0.37590569 56.32781195 1.65894522 75.625 7.73828125 C76.6962915 8.07375977 77.76758301 8.40923828 78.87133789 8.75488281 C102.34046219 16.43437695 125.35565965 28.7152855 143.8125 45.23828125 C144.78316406 46.10066406 145.75382812 46.96304688 146.75390625 47.8515625 C149.81700082 50.60157563 152.8226769 53.40899887 155.8125 56.23828125 C156.74191406 57.11355469 157.67132813 57.98882812 158.62890625 58.890625 C165.77408763 65.81220185 171.94535626 73.22995479 177.8125 81.23828125 C178.22854492 81.80466309 178.64458984 82.37104492 179.07324219 82.95458984 C200.06340381 111.95963078 214.99757843 149.24088327 215.18359375 185.34375 C215.19262222 186.46606522 215.2016507 187.58838043 215.21095276 188.7447052 C215.22536915 191.11029434 215.23432036 193.47592258 215.23803711 195.84155273 C215.24982154 199.37231177 215.29900249 202.90125468 215.34960938 206.43164062 C215.63847884 246.85322402 201.96564671 286.80405567 177.8125 319.23828125 C177.3170166 319.90585449 176.8215332 320.57342773 176.31103516 321.26123047 C144.307406 363.7361408 97.43758546 391.18843649 45.08821106 399.79978943 C39.99458081 400.48163077 34.95346673 400.56310922 29.8203125 400.57421875 C28.71307831 400.58087555 27.60584412 400.58753235 26.46505737 400.59439087 C24.13394817 400.60444873 21.80281057 400.60921004 19.47167969 400.60888672 C15.98061121 400.61322764 12.49084308 400.64953462 9 400.6875 C-9.95181391 400.78390885 -27.88281038 398.44531021 -46 392.73828125 C-47.06984131 392.40352783 -48.13968262 392.06877441 -49.24194336 391.72387695 C-67.83258748 385.64399488 -85.30521929 376.62941769 -101.1875 365.23828125 C-101.77418457 364.81836914 -102.36086914 364.39845703 -102.96533203 363.96582031 C-111.23957265 357.96904395 -118.81294263 351.29046726 -126.1875 344.23828125 C-127.11433594 343.36429687 -128.04117188 342.4903125 -128.99609375 341.58984375 C-153.02442248 318.34541794 -169.44043738 288.07191242 -178.9375 256.23828125 C-179.21940186 255.30218018 -179.50130371 254.3660791 -179.79174805 253.40161133 C-184.50864559 236.95514592 -185.7216946 221.32239137 -185.68847656 204.2578125 C-185.68750916 200.77128121 -185.72917125 197.28699431 -185.7734375 193.80078125 C-186.00713866 150.02449733 -169.64755546 104.037143 -140.1875 71.23828125 C-139.7234375 70.72072266 -139.259375 70.20316406 -138.78125 69.66992188 C-135.30393346 65.80774608 -131.76621997 62.00652844 -128.1875 58.23828125 C-127.40246094 57.41070312 -126.61742187 56.583125 -125.80859375 55.73046875 C-111.40723029 40.94266441 -94.41148211 29.70430886 -76.1875 20.23828125 C-75.49285645 19.87460449 -74.79821289 19.51092773 -74.08251953 19.13623047 C-56.1488707 9.86787439 -37.01960607 4.619566 -17.1875 1.23828125 C-16.341875 1.06321045 -15.49625 0.88813965 -14.625 0.70776367 C-9.74935704 0.04186442 -4.91606128 0.0350036 0 0 Z " fill="#000100" transform="translate(185.1875,-0.23828125)"/>
<path d="M0 0 C4.81849974 1.48071695 9.27663601 2.07406774 14.3125 2.26171875 C15.51455078 2.32166016 16.71660156 2.38160156 17.95507812 2.44335938 C20.4568604 2.56347592 22.95959213 2.66534745 25.46289062 2.74804688 C33.83994125 3.20822619 39.33059252 4.91636916 46.05078125 9.9375 C46.86377686 10.52748779 47.67677246 11.11747559 48.5144043 11.7253418 C50.38571301 13.09949496 52.22713498 14.50099652 54.05078125 15.9375 C51.61619854 24.34967604 48.84934339 32.64136716 46.05078125 40.9375 C47.16259766 41.36482422 47.16259766 41.36482422 48.296875 41.80078125 C55.4346872 44.74702714 59.82529592 47.81455324 63.05078125 54.9375 C63.05078125 55.5975 63.05078125 56.2575 63.05078125 56.9375 C63.60765625 57.185 64.16453125 57.4325 64.73828125 57.6875 C70.41738426 60.75728541 72.6336156 63.4672472 74.5703125 69.5234375 C75.13685994 72.36999295 75.13003949 75.04248856 75.05078125 77.9375 C78.23881922 76.18847874 81.42611233 74.43810431 84.61328125 72.6875 C85.50853516 72.19636719 86.40378906 71.70523438 87.32617188 71.19921875 C88.20595703 70.71582031 89.08574219 70.23242188 89.9921875 69.734375 C91.28793701 69.02571289 91.28793701 69.02571289 92.60986328 68.30273438 C94.77984107 67.08904006 96.89488293 65.81228497 99.015625 64.515625 C100.01722656 63.99484375 101.01882813 63.4740625 102.05078125 62.9375 C105.05078125 63.9375 105.05078125 63.9375 106.05078125 65.9375 C107.00099656 74.51658681 105.76537031 80.72695203 101.05078125 87.9375 C100.65117187 88.55109375 100.2515625 89.1646875 99.83984375 89.796875 C88.83120116 104.34162703 66.88995859 112.19468261 50.05078125 116.9375 C49.29909668 117.15003418 48.54741211 117.36256836 47.77294922 117.58154297 C-2.3664325 131.38686332 -64.29184382 129.58498452 -111.07421875 105.4375 C-116.43689064 102.38867131 -121.30723192 98.99810296 -125.94921875 94.9375 C-126.59761719 94.37160156 -127.24601562 93.80570312 -127.9140625 93.22265625 C-133.74594797 87.78531694 -137.29381176 81.44342303 -138.44921875 73.5 C-138.37909196 67.1301503 -134.27394279 62.11523925 -130.94921875 56.9375 C-129.8800304 55.19157832 -128.81702589 53.44184691 -127.76171875 51.6875 C-127.27445313 50.88570312 -126.7871875 50.08390625 -126.28515625 49.2578125 C-124.69390464 46.4940597 -123.3550321 43.65756106 -122.1015625 40.7265625 C-118.77742742 35.56570193 -113.21775996 33.57725973 -107.82421875 31.25 C-99.25036546 27.38983869 -92.91760998 22.536011 -86.0078125 16.140625 C-78.66457874 9.50378733 -71.34039187 8.56186584 -61.76171875 8.0625 C-51.72935808 7.37322343 -43.16377165 5.93616694 -34.5390625 0.38671875 C-22.83770918 -6.16109736 -11.89098606 -3.87347091 0 0 Z " fill="#588C35" transform="translate(217.94921875,78.0625)"/>
<path d="M0 0 C-0.64800425 1.67401097 -1.32165413 3.33805262 -2 5 C-2.24492188 5.62003906 -2.48984375 6.24007812 -2.7421875 6.87890625 C-6.11014409 14.97094355 -10.90379667 22.25871416 -15.68359375 29.578125 C-19.26977879 36.17585415 -19.07866842 45.00287826 -17.1640625 52.09765625 C-10.26539526 70.03882105 5.48828288 81.54083609 22.56591797 89.14208984 C35.41266021 94.61682369 48.3831108 98.93127307 62 102 C63.92005859 102.44279297 63.92005859 102.44279297 65.87890625 102.89453125 C82.49561514 106.47161704 99.01905122 107.35119525 115.97460938 107.31567383 C119.10061947 107.31252456 122.22566906 107.33604011 125.3515625 107.36132812 C165.11983572 107.48594098 211.3007349 100.32286539 242 73 C242.79277344 72.30132812 243.58554687 71.60265625 244.40234375 70.8828125 C251.6233891 64.13035412 257.55569477 55.93799711 258.203125 45.828125 C258.29638465 38.70930509 257.88592684 33.49333539 255 27 C255 25.68 255 24.36 255 23 C257.8508931 20.54690594 259.72642717 19 263.5625 19 C270.51016799 21.85032533 273.850854 27.45434306 277 34 C281.19333615 45.76518959 279.46690341 60.06386489 277 72 C276.78214844 73.15886719 276.56429688 74.31773437 276.33984375 75.51171875 C275.73346271 78.68279337 275.08644961 81.84132482 274.41210938 84.99853516 C273.98546271 87.0706023 273.61020086 89.14864151 273.234375 91.23046875 C271.76363131 98.78197086 270.16759503 104.43518187 263.7265625 109.21875 C262.82679688 109.8065625 261.92703125 110.394375 261 111 C259.97648437 111.7115625 258.95296875 112.423125 257.8984375 113.15625 C254.34594837 115.57513234 250.69827443 117.81193232 247 120 C246.37125977 120.3727002 245.74251953 120.74540039 245.09472656 121.12939453 C223.17002482 133.89939658 198.07543939 141.69947853 173.3125 146.75 C172.33998291 146.94883789 171.36746582 147.14767578 170.36547852 147.35253906 C154.30641683 150.46272359 138.67667247 151.32420324 122.34399414 151.26074219 C119.07093742 151.25002762 115.79843074 151.26069526 112.52539062 151.2734375 C97.02765071 151.28433703 81.73148237 150.63132714 66.5625 147.1875 C65.79156006 147.01863281 65.02062012 146.84976563 64.22631836 146.67578125 C55.41754154 144.70857389 46.68564041 142.45140634 38 140 C36.99324219 139.71769531 35.98648438 139.43539062 34.94921875 139.14453125 C13.42840591 132.51076405 -9.08050139 122.13615225 -26 107 C-26.61504395 106.45770752 -27.23008789 105.91541504 -27.86376953 105.35668945 C-33.65662142 99.64207907 -34.24207037 94.21311451 -34.75 86.3125 C-34.92151852 84.09939909 -35.10343657 81.88707404 -35.296875 79.67578125 C-35.36229492 78.70552002 -35.42771484 77.73525879 -35.49511719 76.7355957 C-36.07333279 73.60266251 -37.30544164 71.67287976 -39 69 C-40.91426267 63.47262775 -40.3513408 57.21016618 -40.4375 51.4375 C-40.48326172 50.21224609 -40.52902344 48.98699219 -40.57617188 47.72460938 C-40.72793973 35.33903278 -35.97522806 27.33098645 -27.6171875 18.48046875 C-8.11811024 0 -8.11811024 0 0 0 Z " fill="#FDFDFC" transform="translate(82,110)"/>
<path d="M0 0 C0.42120117 0.37729248 0.84240234 0.75458496 1.27636719 1.14331055 C24.81726508 21.83086464 58.92399601 33.96265915 89.57275391 38.62646484 C91.21089221 38.87856217 92.84612336 39.15021816 94.47802734 39.43994141 C123.33162394 44.55372371 155.160005 44.00439704 184 39 C184.85916016 38.86078125 185.71832031 38.7215625 186.60351562 38.578125 C215.87061304 33.77075387 246.96695212 22.75414348 271 5 C269.67295051 9.84409322 267.54184728 13.37559576 264.4375 17.25 C263.99494873 17.81283691 263.55239746 18.37567383 263.09643555 18.95556641 C258.9509989 24.17300957 254.56226268 29.14339779 250 34 C249.47535156 34.58910156 248.95070313 35.17820312 248.41015625 35.78515625 C229.75605896 55.86323044 202.53051547 66.37203914 176.26928711 71.54150391 C174.76093219 71.84625813 173.25846882 72.18184071 171.76391602 72.54833984 C162.72648831 74.56382328 153.56920691 74.30089927 144.36010742 74.26074219 C141.46836937 74.25011346 138.57726491 74.26063248 135.68554688 74.2734375 C120.27866906 74.28645285 105.11234093 73.47541361 90.125 69.625 C88.79082031 69.29085083 88.79082031 69.29085083 87.4296875 68.94995117 C84.94793401 68.31794761 82.47314675 67.66477239 80 67 C78.92492187 66.71511719 77.84984375 66.43023437 76.7421875 66.13671875 C44.8702978 56.55699122 19.59099903 35.54571427 3 7 C2.43152344 6.09121094 1.86304687 5.18242187 1.27734375 4.24609375 C0 2 0 2 0 0 Z " fill="#FCFDFB" transform="translate(63,252)"/>
<path d="M0 0 C9.13192468 0.38113208 16.47731188 4.79582982 24.27734375 9.16015625 C24.88078613 9.49499023 25.48422852 9.82982422 26.10595703 10.17480469 C33.60990817 14.39590898 41.99270056 19.21735187 47.27734375 26.16015625 C47.75728034 29.45600399 47.76537146 31.31014773 46.09765625 34.21484375 C37.3066004 43.65408805 27.10077037 50.39056501 16.14257812 57.0234375 C14.47334351 58.04070928 12.8195338 59.08319169 11.16796875 60.12890625 C10.2965625 60.67546875 9.42515625 61.22203125 8.52734375 61.78515625 C7.79 62.25179687 7.05265625 62.7184375 6.29296875 63.19921875 C4.27734375 64.16015625 4.27734375 64.16015625 0.27734375 64.16015625 C-2.72265625 60.08872768 -2.72265625 60.08872768 -2.72265625 57.16015625 C-3.48578125 56.89203125 -4.24890625 56.62390625 -5.03515625 56.34765625 C-10.08338969 54.11704147 -11.30643408 50.99260059 -13.72265625 46.16015625 C-15.76322364 43.69447065 -16.59239549 43.2035765 -19.72265625 42.16015625 C-19.14127379 36.62975556 -17.75729519 31.88720478 -15.72265625 26.72265625 C-15.26995361 25.56262085 -15.26995361 25.56262085 -14.80810547 24.37915039 C-5.16079594 0.47980189 -5.16079594 0.47980189 0 0 Z " fill="#D4B843" transform="translate(300.72265625,69.83984375)"/>
</svg>
