<?xml version="1.0" encoding="UTF-8"?>
<svg version="1.1" xmlns="http://www.w3.org/2000/svg" width="512" height="512">
    <path
        d="M0 0 C1.6546804 -0.00786278 1.6546804 -0.00786278 3.3427887 -0.0158844 C5.66837729 -0.02228843 7.99399834 -0.02098867 10.31958008 -0.01245117 C13.86403467 -0.00394195 17.40687624 -0.03272638 20.95117188 -0.06445312 C23.21744744 -0.06606542 25.48372583 -0.06548707 27.75 -0.0625 C28.80231308 -0.07373398 29.85462616 -0.08496796 30.93882751 -0.09654236 C38.62807217 -0.02425526 44.05990994 1.43870974 49.8671875 6.58203125 C50.80111328 7.68417969 50.80111328 7.68417969 51.75390625 8.80859375 C52.70716797 9.90300781 52.70716797 9.90300781 53.6796875 11.01953125 C57.39435489 16.10969633 58.81825068 20.04464635 58.734375 26.36328125 C58.72470703 27.65234375 58.71503906 28.94140625 58.70507812 30.26953125 C58.68001813 31.61589161 58.65462337 32.96224578 58.62890625 34.30859375 C58.61384129 35.6783708 58.60015607 37.04816377 58.58789062 38.41796875 C58.55262004 41.75691733 58.50332521 45.0950505 58.44140625 48.43359375 C59.41335938 48.62953125 60.3853125 48.82546875 61.38671875 49.02734375 C79.73608777 52.9265564 96.94304961 59.56755672 113.44140625 68.43359375 C114.87980638 69.19477047 116.31861781 69.95517042 117.7578125 70.71484375 C121.32797987 72.60471523 124.88735984 74.51359167 128.44140625 76.43359375 C133.31154411 72.12232417 138.12608293 67.81853812 142.62890625 63.12109375 C148.41989332 57.24821393 154.28528953 54.35045413 162.56640625 54.12109375 C171.09321872 54.25715991 177.0379527 56.69699481 183.06640625 62.74609375 C183.80375 63.53886719 184.54109375 64.33164063 185.30078125 65.1484375 C187.21887366 67.19603615 189.17470814 69.0020801 191.31640625 70.80859375 C213.96202722 90.32911902 213.96202722 90.32911902 215.7578125 103.80859375 C216.17554249 112.43269667 213.88026315 118.78269495 208.19921875 125.2578125 C204.70935646 129.07861794 201.10350103 132.77829742 197.44140625 136.43359375 C196.63703125 137.24054688 195.83265625 138.0475 195.00390625 138.87890625 C194.48828125 139.39195312 193.97265625 139.905 193.44140625 140.43359375 C194.84254301 144.13605771 196.51676041 147.54905305 198.41796875 151.01953125 C208.72261519 170.12955344 216.26386261 189.31584115 221.44140625 210.43359375 C222.30830078 210.47323242 223.17519531 210.51287109 224.06835938 210.55371094 C227.31960684 210.71097331 230.56949934 210.88437791 233.81933594 211.06835938 C235.2193954 211.14438653 236.61980889 211.21418401 238.02050781 211.27734375 C247.33461196 211.70252397 254.65517902 212.18676673 261.90234375 218.6171875 C262.53398437 219.36097656 263.165625 220.10476562 263.81640625 220.87109375 C264.46351563 221.61230469 265.110625 222.35351562 265.77734375 223.1171875 C268.63784071 227.09905298 269.68781556 230.64874261 269.74780273 235.52416992 C269.76379013 236.5125737 269.77977753 237.50097748 269.79624939 238.51933289 C269.80161209 239.57771866 269.80697479 240.63610443 269.8125 241.7265625 C269.82152847 242.82776932 269.83055695 243.92897614 269.83985901 245.06355286 C269.85435253 247.39268277 269.86324601 249.72185332 269.86694336 252.05102539 C269.87880664 255.59136801 269.92797627 259.12994853 269.97851562 262.66992188 C269.98798441 264.93879363 269.99521726 267.20767603 270 269.4765625 C270.01953232 270.52482712 270.03906464 271.57309174 270.05918884 272.65312195 C270.01092832 280.62674325 268.18116285 287.35183519 262.68577576 293.34977722 C256.31223771 299.33739693 249.66741216 300.88397296 241.19140625 301.12109375 C239.94266724 301.17124634 239.94266724 301.17124634 238.66870117 301.22241211 C232.59438671 301.44966029 226.51942238 301.55651992 220.44140625 301.43359375 C220.32796875 302.56410156 220.21453125 303.69460938 220.09765625 304.859375 C217.5348381 325.13500402 207.80160791 345.28882569 197.62792969 362.75048828 C197.22606445 363.44126465 196.82419922 364.13204102 196.41015625 364.84375 C196.05373047 365.44324463 195.69730469 366.04273926 195.33007812 366.66040039 C194.32669147 368.66248756 193.65421599 370.19276766 193.44140625 372.43359375 C194.60731994 374.25863949 194.60731994 374.25863949 196.44921875 375.859375 C197.10664063 376.49166016 197.7640625 377.12394531 198.44140625 377.77539062 C199.14265625 378.42572266 199.84390625 379.07605469 200.56640625 379.74609375 C208.66469639 387.37480623 215.26445254 394.06170461 215.75390625 405.80859375 C215.31303725 420.23480719 204.59089557 428.47087053 195.04394531 438.01635742 C193.43914444 439.62335867 191.84254382 441.23822333 190.24609375 442.85351562 C175.51035853 457.67237184 175.51035853 457.67237184 164.12890625 458.74609375 C153.56100408 457.85050882 147.82684404 453.9033677 140.44140625 446.43359375 C139.68214844 445.675625 138.92289062 444.91765625 138.140625 444.13671875 C136.79480507 442.78843845 135.45755631 441.43149412 134.1328125 440.0625 C132.33420728 438.23384183 132.33420728 438.23384183 129.44140625 436.43359375 C124.94869383 436.71872301 121.68398242 438.84843734 117.87890625 441.12109375 C116.61836566 441.8561907 115.35662898 442.58924014 114.09375 443.3203125 C113.47097168 443.6817334 112.84819336 444.0431543 112.20654297 444.41552734 C97.52724917 452.882008 75.80848557 463.43359375 58.44140625 463.43359375 C58.45187988 464.07272705 58.46235352 464.71186035 58.47314453 465.37036133 C58.5152912 468.3288971 58.5409157 471.28736936 58.56640625 474.24609375 C58.58316406 475.25091797 58.59992188 476.25574219 58.6171875 477.29101562 C58.68686803 488.12633822 58.16549357 497.3050031 50.44140625 505.43359375 C43.47503838 512.21663615 35.53303431 512.90048108 26.29296875 512.90234375 C25.24039886 512.90995728 24.18782898 512.9175708 23.10336304 512.92541504 C20.88631552 512.93617551 18.66921747 512.93908573 16.45214844 512.93457031 C13.08311359 512.93359857 9.7163627 512.97525795 6.34765625 513.01953125 C4.18359845 513.02473962 2.01953282 513.02742642 -0.14453125 513.02734375 C-1.13963715 513.04373901 -2.13474304 513.06013428 -3.16000366 513.07702637 C-11.28226096 512.99783751 -17.99003552 510.77339825 -23.99609375 505.15234375 C-24.76953125 504.0540625 -24.76953125 504.0540625 -25.55859375 502.93359375 C-26.36296875 501.8353125 -26.36296875 501.8353125 -27.18359375 500.71484375 C-29.87082804 496.25647778 -30.81269008 492.56356065 -30.9375 487.36328125 C-30.97166016 486.21988281 -31.00582031 485.07648438 -31.04101562 483.8984375 C-31.06744141 482.71378906 -31.09386719 481.52914063 -31.12109375 480.30859375 C-31.18097108 477.95171994 -31.24459635 475.59493747 -31.3125 473.23828125 C-31.33642822 472.19655762 -31.36035645 471.15483398 -31.38500977 470.08154297 C-31.45321108 467.32725245 -31.45321108 467.32725245 -32.55859375 464.43359375 C-34.98398381 463.32714177 -34.98398381 463.32714177 -37.9921875 462.53125 C-39.11689453 462.19802734 -40.24160156 461.86480469 -41.40039062 461.52148438 C-43.18026367 461.01391602 -43.18026367 461.01391602 -44.99609375 460.49609375 C-53.02741736 458.16354929 -60.86336378 455.72715657 -68.55859375 452.43359375 C-68.04795721 448.22891934 -65.75376419 446.26035302 -62.8269043 443.34545898 C-62.33575134 442.85226166 -61.84459839 442.35906433 -61.33856201 441.85092163 C-59.71463941 440.22399343 -58.08023225 438.60805823 -56.4453125 436.9921875 C-55.31230893 435.86224272 -54.17989621 434.73170521 -53.04804993 433.6006012 C-50.67433873 431.23149208 -48.29580344 428.86737694 -45.91333008 426.50708008 C-42.86337311 423.48537286 -39.82212848 420.45508721 -36.78402996 417.42146206 C-34.44505958 415.08665497 -32.10327149 412.7546925 -29.76044655 410.42375374 C-28.63847974 409.30747453 -27.51697364 408.19073207 -26.39594078 407.07351494 C-24.82602669 405.51049831 -23.2527883 403.95090972 -21.6784668 402.39233398 C-20.78435593 401.50505112 -19.89024506 400.61776825 -18.96903992 399.70359802 C-13.41078776 394.46919108 -13.41078776 394.46919108 -10.51879883 394.34838867 C-9.77525146 394.47318604 -9.0317041 394.5979834 -8.265625 394.7265625 C30.98275131 399.97451624 69.04043161 389.98553229 100.45898438 365.99804688 C130.13046673 342.58242386 148.25648707 308.45781334 152.72314453 271.07568359 C156.54072031 231.78401905 144.29406098 194.88913041 119.44140625 164.43359375 C118.73113281 163.55058594 118.02085937 162.66757813 117.2890625 161.7578125 C112.30998442 155.86233969 106.56128725 151.10609929 100.44140625 146.43359375 C99.90741211 146.02463867 99.37341797 145.61568359 98.82324219 145.19433594 C68.00662278 121.79819999 30.32949499 112.47679121 -8.02734375 117.6875 C-43.37050785 123.15617969 -76.95986769 142.98576283 -98.30859375 171.74609375 C-108.77484998 186.32126885 -116.09160537 201.91346143 -121.30859375 219.05859375 C-121.50743164 219.7023999 -121.70626953 220.34620605 -121.91113281 221.00952148 C-125.25743894 232.54796383 -125.85737607 244.04202966 -125.74609375 255.99609375 C-125.74544922 257.31544922 -125.74480469 258.63480469 -125.74414062 259.99414062 C-125.73308895 262.4734004 -125.71996645 264.95265269 -125.70385742 267.43188477 C-125.70519684 268.04784515 -125.70653625 268.66380554 -125.70791626 269.2984314 C-125.61078618 271.54452792 -125.61078618 271.54452792 -124.9090271 274.10806274 C-123.88466203 279.17509418 -123.74429101 282.15592573 -126.58427429 286.61195374 C-129.60298245 290.20221839 -132.99074779 293.40906553 -136.38671875 296.63671875 C-137.61668972 297.85003627 -138.8440097 299.06604651 -140.06878662 300.28460693 C-142.63253245 302.82247849 -145.21563211 305.33800594 -147.81689453 307.83740234 C-151.15475722 311.04469699 -154.45679137 314.28597507 -157.74705887 317.54201126 C-160.88691687 320.64719528 -164.0417085 323.73700002 -167.19921875 326.82421875 C-167.80174721 327.41504494 -168.40427567 328.00587112 -169.02506256 328.61460114 C-170.72646488 330.27667629 -172.43785759 331.92765106 -174.15332031 333.57519531 C-174.65839615 334.07063339 -175.16347198 334.56607147 -175.68385315 335.07652283 C-179.21359534 338.43359375 -179.21359534 338.43359375 -182.55859375 338.43359375 C-193.55859375 309.13675763 -193.55859375 309.13675763 -193.55859375 301.43359375 C-194.41501465 301.42948486 -195.27143555 301.42537598 -196.15380859 301.42114258 C-199.37868554 301.39392383 -202.60231067 301.34458988 -205.82666016 301.28100586 C-207.21326253 301.25802971 -208.60003437 301.2434787 -209.98681641 301.23803711 C-220.08421865 301.19064858 -228.26937105 300.23118998 -235.99609375 293.22265625 C-236.51171875 292.50851562 -237.02734375 291.794375 -237.55859375 291.05859375 C-238.09484375 290.34960938 -238.63109375 289.640625 -239.18359375 288.91015625 C-242.78424002 282.42490131 -242.87778838 276.0348193 -242.89453125 268.78515625 C-242.90118805 267.77319183 -242.90784485 266.76122742 -242.91470337 265.71859741 C-242.92479303 263.58552864 -242.92952154 261.45242854 -242.92919922 259.31933594 C-242.93357078 256.07563721 -242.96992623 252.83330208 -243.0078125 249.58984375 C-243.01368193 247.5091192 -243.01765048 245.42838823 -243.01953125 243.34765625 C-243.03390228 242.38799957 -243.04827332 241.4283429 -243.06307983 240.43960571 C-243.00393066 231.61805375 -240.30493294 224.42983368 -234.234375 217.9375 C-223.67692043 208.46286128 -206.78903182 211.29995296 -193.55859375 211.43359375 C-193.49542969 210.81097656 -193.43226563 210.18835938 -193.3671875 209.546875 C-190.59987598 188.66095542 -180.96050899 169.04641467 -171.55859375 150.43359375 C-170.89859375 150.43359375 -170.23859375 150.43359375 -169.55859375 150.43359375 C-168.87833738 148.43817507 -168.21368878 146.43741384 -167.55859375 144.43359375 C-167.32462891 143.7674707 -167.09066406 143.10134766 -166.84960938 142.41503906 C-166.75357422 141.76116211 -166.65753906 141.10728516 -166.55859375 140.43359375 C-168.32185991 138.15100947 -170.03754328 136.21347877 -172.05859375 134.18359375 C-173.17209701 133.01583665 -174.28537918 131.8478687 -175.3984375 130.6796875 C-177.19336279 128.82838826 -178.9985871 126.98902508 -180.8125 125.15625 C-185.91707553 119.76502444 -188.31115859 114.39776167 -188.68359375 106.92578125 C-188.00464132 93.38916715 -178.90770774 85.01708609 -169.8034668 76.08154297 C-167.74549552 74.05800553 -165.71274466 72.01140406 -163.68164062 69.9609375 C-162.36471111 68.65090479 -161.04639732 67.34226187 -159.7265625 66.03515625 C-159.12732468 65.43095856 -158.52808685 64.82676086 -157.91069031 64.20425415 C-151.61966741 58.08386009 -144.74921746 54.39272716 -135.87109375 54.12109375 C-123.42538662 54.33975918 -115.89774542 62.98142602 -107.68359375 71.37109375 C-107.17054688 71.91636719 -106.6575 72.46164063 -106.12890625 73.0234375 C-104.29935711 74.66639084 -102.91376578 75.68401922 -100.55859375 76.43359375 C-98.3907423 75.63320116 -98.3907423 75.63320116 -96.24609375 74.05859375 C-95.35148438 73.48882812 -94.456875 72.9190625 -93.53515625 72.33203125 C-92.55289063 71.70554687 -91.570625 71.0790625 -90.55859375 70.43359375 C-72.93360432 59.78610656 -52.69879006 52.56649774 -32.55859375 48.43359375 C-31.75910619 44.91259013 -31.43701275 41.65412553 -31.41796875 38.046875 C-31.39863281 37.02529297 -31.37929687 36.00371094 -31.359375 34.95117188 C-31.32583325 32.8341716 -31.30731601 30.71687372 -31.3046875 28.59960938 C-31.11163573 20.49651536 -29.40473566 13.63021186 -23.80371094 7.51879883 C-16.63632768 0.78236583 -9.47242527 -0.0263745 0 0 Z "
        fill="#17A057" transform="translate(242.55859375,-0.43359375)" />
    <path
        d="M0 0 C3.21607001 3.42355839 4.31837354 6.51314994 4.625 11.1875 C4.45974552 16.02685576 3.48558783 18.18713683 0.15234375 21.671875 C-0.66484131 22.53377441 -1.48202637 23.39567383 -2.32397461 24.28369141 C-3.22768799 25.20069824 -4.13140137 26.11770508 -5.0625 27.0625 C-5.53172882 27.53983582 -6.00095764 28.01717163 -6.48440552 28.50897217 C-10.02200712 32.0990217 -13.60037407 35.64703226 -17.1875 39.1875 C-37.00365696 57.44003872 -37.00365696 57.44003872 -45.4375 82 C-45.01337605 93.39833117 -40.34815824 101.21135631 -32.1875 108.875 C-25.38628104 114.51911176 -17.83860457 116.23802209 -9.0625 116.0625 C6.78255923 113.97549092 15.87011496 103.50999154 26.5 92.625 C29.03913224 90.03917255 31.58259574 87.45766459 34.12890625 84.87890625 C34.73174438 84.26770432 35.33458252 83.65650238 35.95568848 83.02677917 C40.11492708 78.83222124 44.37954618 74.82487573 48.9375 71.0625 C49.88625 70.258125 50.835 69.45375 51.8125 68.625 C56.24109938 66.41070031 60.07825696 66.28028039 64.9375 67.0625 C69.41193165 69.25903917 71.91499938 71.51187361 73.9375 76.0625 C76.18745926 84.03735558 76.33689173 91.81464439 76.3125 100.0625 C76.31168427 101.09612671 76.31168427 101.09612671 76.31085205 102.15063477 C76.20578492 131.0886438 64.96002239 156.45656317 45 177.375 C22.87620035 198.42177898 -4.72545005 207.89037277 -34.94140625 207.32421875 C-41.37081211 207.08365029 -47.63626659 206.11400189 -53.94921875 204.9140625 C-54.58766755 204.80095954 -55.22611635 204.68785658 -55.88391209 204.57132626 C-58.0625 204.0625 -58.0625 204.0625 -60.01421261 203.16645908 C-62.60116506 202.13150501 -64.26983513 201.80975654 -67.0625 202.0625 C-71.64614558 204.96660307 -75.23353279 208.85446008 -78.97290039 212.73999023 C-80.14112562 213.9129569 -81.31178993 215.08349864 -82.48469543 216.25178528 C-85.66250005 219.43070469 -88.80528972 222.64233038 -91.943084 225.86068225 C-95.23710207 229.22727532 -98.56278738 232.56227894 -101.88536072 235.90065002 C-108.18040115 242.235062 -114.44731842 248.59654443 -120.70424789 254.96858031 C-128.49423391 262.89941848 -136.31758912 270.79707949 -144.14257812 278.69335938 C-146.8870563 281.46300281 -149.63135233 284.2328264 -152.37535095 287.00294495 C-153.3735281 288.01058689 -153.3735281 288.01058689 -154.39187044 289.03858525 C-158.33222431 293.01802059 -162.26630113 297.00353428 -166.19444859 300.99501884 C-168.64644616 303.48654558 -171.10027136 305.97626873 -173.55410576 308.46598625 C-174.68540088 309.61501936 -175.81571418 310.76502014 -176.94493103 311.91609573 C-182.29351763 317.36808089 -187.63814173 322.75720264 -193.47264099 327.69842434 C-195.75118403 329.65338077 -197.8241785 331.78079312 -199.90234375 333.9453125 C-200.73830078 334.80253906 -201.57425781 335.65976562 -202.43554688 336.54296875 C-204.14720323 338.30807362 -205.85293745 340.07894037 -207.55273438 341.85546875 C-212.64705802 347.05567903 -217.44100017 351.0039977 -224.0625 354.0625 C-224.75118164 354.38871338 -225.43986328 354.71492676 -226.14941406 355.05102539 C-235.33883815 359.14262253 -248.28184016 358.29385667 -257.6875 355.4375 C-262.84833669 353.40444312 -266.9561602 350.76592128 -271.0625 347.0625 C-271.75214844 346.464375 -272.44179688 345.86625 -273.15234375 345.25 C-281.03066399 337.97319025 -285.8565435 328.42765448 -286.3984375 317.609375 C-286.67218462 303.06919132 -284.30260385 292.91588583 -274.18945312 282.05004883 C-272.19036938 280.02987247 -270.16625776 278.0400288 -268.125 276.0625 C-266.75917986 274.73176753 -265.3958837 273.39843951 -264.03515625 272.0625 C-263.14195679 271.19625 -263.14195679 271.19625 -262.23071289 270.3125 C-260.4610852 268.47612022 -258.82611648 266.61224682 -257.17858887 264.66966248 C-252.09643148 258.85159082 -246.54660779 253.50476384 -241.03686523 248.09790039 C-239.83032459 246.90968048 -238.62410057 245.721139 -237.41816711 244.53230286 C-234.83551867 241.98651136 -232.25172749 239.44188705 -229.66735649 236.89784431 C-225.58145325 232.87348921 -221.50494362 228.83971012 -217.43092346 224.80332947 C-216.74170773 224.12050575 -216.05249201 223.43768203 -215.34239095 222.73416668 C-212.50459768 219.92235355 -209.6671015 217.11024075 -206.8296994 214.29803288 C-198.78494606 206.32558229 -190.73127415 198.36261181 -182.65112305 190.42602539 C-176.21744822 184.10653483 -169.80335106 177.76790588 -163.41165119 171.4059543 C-160.03221208 168.04371259 -156.64359607 164.69204718 -153.23098564 161.363451 C-150.02648887 158.23743387 -146.84854954 155.08672434 -143.68920708 151.91509819 C-142.52564469 150.75616142 -141.35261054 149.60664588 -140.16968155 148.46748352 C-133.83400414 142.88460395 -133.83400414 142.88460395 -130.81672859 135.44802666 C-131.31701321 133.10637932 -132.04445813 131.22109386 -133.0625 129.0625 C-139.91215256 98.58468815 -136.10044594 69.09229633 -119.69848633 42.30566406 C-115.28548622 35.51413801 -109.82811265 29.71612151 -104.0625 24.0625 C-102.77472656 22.7940625 -102.77472656 22.7940625 -101.4609375 21.5 C-86.47840735 7.42117801 -66.42647788 -1.98963631 -46.0625 -4.9375 C-45.29808594 -5.05996094 -44.53367188 -5.18242187 -43.74609375 -5.30859375 C-30.25070497 -7.01927683 -11.80992702 -7.47158648 0 0 Z "
        fill="#1D1D1D" transform="translate(286.0625,154.9375)" />
</svg>