<?xml version="1.0" encoding="UTF-8"?>
<svg version="1.1" xmlns="http://www.w3.org/2000/svg" width="192" height="192">
    <path
        d="M0 0 C1.81952641 0.87018594 3.60485887 1.81382088 5.359375 2.80859375 C6.38345459 3.38536865 7.40753418 3.96214355 8.46264648 4.55639648 C9.54747314 5.17716064 10.6322998 5.7979248 11.75 6.4375 C13.44008179 7.39474976 13.44008179 7.39474976 15.16430664 8.37133789 C21.93494344 12.21685066 28.67678887 16.10968206 35.37133789 20.08618164 C43.2286639 24.75155802 51.16234088 29.28562682 59.09350586 33.82397461 C60.15964111 34.43635986 61.22577637 35.04874512 62.32421875 35.6796875 C63.27385498 36.22351074 64.22349121 36.76733398 65.2019043 37.32763672 C66.12527588 37.8795166 67.04864746 38.43139648 68 39 C69.02940704 39.52113373 70.05881409 40.04226746 71.11941528 40.57919312 C74 43 74 43 74.80900574 46.76800537 C74.86587974 48.31293604 74.88968117 49.85929787 74.88745117 51.40527344 C74.92008812 52.6743454 74.92008812 52.6743454 74.9533844 53.96905518 C75.01547917 56.76632797 75.03206326 59.56146309 75.04296875 62.359375 C75.06479314 64.30748324 75.08737176 66.25558317 75.110672 68.20367432 C75.15112052 72.28929126 75.16622304 76.37415424 75.16674805 80.45996094 C75.171722 85.68525366 75.26390536 90.90499094 75.37858105 96.12887192 C75.45298472 100.15439048 75.46814637 104.17857848 75.46703529 108.20471954 C75.47593821 110.1297571 75.50597236 112.05482125 75.55788231 113.97917938 C75.85739593 126.15610956 75.85739593 126.15610956 74 131 C70.08896536 135.06678849 66.21885425 136.83918891 61 139 C58.77530031 140.20201536 56.62145223 141.49194069 54.44921875 142.7890625 C52.19636677 144.06956494 49.94242909 145.34815884 47.6875 146.625 C45.23473965 148.01918926 42.78322943 149.41556634 40.33203125 150.8125 C39.41357422 151.33573349 39.41357422 151.33573349 38.4765625 151.86953735 C32.25463977 155.41793907 26.06084784 159.0141036 19.875 162.625 C18.92326904 163.18010254 17.97153809 163.73520508 16.9909668 164.30712891 C16.08386963 164.83741699 15.17677246 165.36770508 14.2421875 165.9140625 C13.37174805 166.41969727 12.50130859 166.92533203 11.60449219 167.44628906 C9.80808382 168.51793725 8.03346192 169.6266718 6.27832031 170.76464844 C5.40530273 171.32442383 4.53228516 171.88419922 3.6328125 172.4609375 C2.47483154 173.22736572 2.47483154 173.22736572 1.29345703 174.00927734 C-1.65605034 175.28339922 -2.96960185 174.98868823 -6 174 C-8.48168945 172.82348633 -8.48168945 172.82348633 -11.11328125 171.33203125 C-12.59574341 170.4975647 -12.59574341 170.4975647 -14.1081543 169.64624023 C-15.69430542 168.73853882 -15.69430542 168.73853882 -17.3125 167.8125 C-18.41827393 167.18609619 -19.52404785 166.55969238 -20.66333008 165.91430664 C-34.28779123 158.17381714 -47.81910019 150.27163297 -61.2890625 142.265625 C-62.80657104 141.36469116 -62.80657104 141.36469116 -64.35473633 140.44555664 C-66.28337839 139.29919664 -68.21038248 138.15007506 -70.13549805 136.99780273 C-70.9944165 136.48677002 -71.85333496 135.9757373 -72.73828125 135.44921875 C-73.49149658 134.99893311 -74.24471191 134.54864746 -75.02075195 134.0847168 C-77.10532489 132.86565473 -77.10532489 132.86565473 -80 132 C-80.30164799 120.53474554 -80.53240786 109.07043916 -80.67355824 97.60202026 C-80.74131865 92.27605748 -80.83315101 86.95281483 -80.98071289 81.62841797 C-81.12232253 76.48641434 -81.19976052 71.34701991 -81.23340416 66.20321655 C-81.25736558 64.2444855 -81.3041657 62.28589243 -81.37449074 60.32827759 C-81.80328839 47.89360306 -81.80328839 47.89360306 -80 43 C-76.09869976 38.89193053 -72.24823619 37.14900843 -67 35 C-64.77385653 33.79981937 -62.6212794 32.50930328 -60.44921875 31.2109375 C-58.19636677 29.93043506 -55.94242909 28.65184116 -53.6875 27.375 C-51.23473965 25.98081074 -48.78322943 24.58443366 -46.33203125 23.1875 C-45.71972656 22.83867767 -45.10742188 22.48985535 -44.4765625 22.13046265 C-38.25463977 18.58206093 -32.06084784 14.9858964 -25.875 11.375 C-24.92326904 10.81989746 -23.97153809 10.26479492 -22.9909668 9.69287109 C-22.08386963 9.16258301 -21.17677246 8.63229492 -20.2421875 8.0859375 C-18.93652832 7.32748535 -18.93652832 7.32748535 -17.60449219 6.55371094 C-15.80808382 5.48206275 -14.03346192 4.3733282 -12.27832031 3.23535156 C-10.96879395 2.39568848 -10.96879395 2.39568848 -9.6328125 1.5390625 C-8.8608252 1.02811035 -8.08883789 0.5171582 -7.29345703 -0.00927734 C-4.33734075 -1.28625412 -3.03773428 -0.99558201 0 0 Z M-8.6875 12.5 C-9.89986328 13.19609375 -9.89986328 13.19609375 -11.13671875 13.90625 C-11.75160156 14.2671875 -12.36648437 14.628125 -13 15 C-13 16.65 -13 18.3 -13 20 C-13.65484375 20.08636719 -14.3096875 20.17273437 -14.984375 20.26171875 C-27.55783838 22.19746382 -37.09747141 27.13116606 -47 35 C-47.85078125 35.65355469 -48.7015625 36.30710937 -49.578125 36.98046875 C-61.16292259 46.64069513 -69.34084983 63.10083143 -71 78 C-71.41878225 85.59458282 -71.8268565 93.57471227 -70 101 C-67.525 100.01 -67.525 100.01 -65 99 C-65.0314209 98.11030518 -65.0314209 98.11030518 -65.06347656 97.20263672 C-65.68765334 76.79047582 -63.08864888 60.22615814 -49.25 44.125 C-39.45391146 33.94417082 -26.73775414 27.90606338 -13 25 C-12.85111328 25.91845703 -12.85111328 25.91845703 -12.69921875 26.85546875 C-11.70330848 29.90996449 -9.6579301 30.87687105 -6.89453125 32.30078125 C-3.87061936 33.41682296 -2.02932994 33.00977665 1 32 C3.4277386 30.7763018 5.68395401 29.43594851 8 28 C8.54058904 23.87550583 8.78284814 20.10212425 8 16 C5.42398402 13.10595736 2.59221647 11.41455156 -1 10 C-4.44360632 10 -5.74795392 10.79591532 -8.6875 12.5 Z M18 23 C18 24.65 18 26.3 18 28 C18.89460938 28.4125 19.78921875 28.825 20.7109375 29.25 C37.39670333 37.130869 49.56526349 48.20984612 56 66 C61.09923615 80.38934249 59.92055855 95.48459869 56 110 C55.34 110 54.68 110 54 110 C54 109.34 54 108.68 54 108 C50.2089881 109.44950455 46.6125362 111.15172566 43 113 C42.45940318 117.12455354 42.22826448 120.89624424 43 125 C45.52845381 127.99848689 48.26942986 129.79601631 52 131 C55.4105717 130.68805747 57.90538015 129.70457285 60.8125 127.9375 C61.864375 127.298125 62.91625 126.65875 64 126 C64 121.71 64 117.42 64 113 C63.01 112.505 63.01 112.505 62 112 C62.80606958 105.82013323 62.80606958 105.82013323 63.51171875 102.8359375 C67.62407425 85.39488366 64.66175658 66.4332523 55.25 51.16015625 C46.68638404 38.84995831 35.48223479 27.91756699 21 23 C20.01 23 19.02 23 18 23 Z M-9.2421875 46.81640625 C-10.30953125 47.41646484 -11.376875 48.01652344 -12.4765625 48.63476562 C-13.59804687 49.27091797 -14.71953125 49.90707031 -15.875 50.5625 C-16.9578125 51.17158203 -18.040625 51.78066406 -19.15625 52.40820312 C-21.35215196 53.64634593 -23.5338935 54.90991998 -25.70117188 56.19750977 C-29 58 -29 58 -32.47070312 59.23803711 C-36.26415335 60.75928692 -38.36246909 61.85004265 -41 65 C-43.00009703 72.22243615 -42.11904097 80.04449521 -41.75 87.4375 C-41.68977211 89.52523815 -41.63502526 91.61314209 -41.5859375 93.70117188 C-41.45402055 98.80488335 -41.24721933 103.90062582 -41 109 C-40.30551758 109.38744385 -39.61103516 109.7748877 -38.89550781 110.17407227 C-35.67967817 111.96903459 -32.46483649 113.76575956 -29.25 115.5625 C-28.15816406 116.17158203 -27.06632812 116.78066406 -25.94140625 117.40820312 C-24.85214844 118.01728516 -23.76289062 118.62636719 -22.640625 119.25390625 C-21.54169922 119.86379395 -20.44277344 120.47368164 -19.31054688 121.10205078 C-17.07817128 122.38188027 -14.87588603 123.71548155 -12.70507812 125.09716797 C-11.66287109 125.75475098 -10.62066406 126.41233398 -9.546875 127.08984375 C-8.62229492 127.69562256 -7.69771484 128.30140137 -6.74511719 128.92553711 C-3.98522242 130.29978651 -3.98522242 130.29978651 -0.8894043 129.31103516 C1.41646913 128.26477066 3.60940545 127.23435673 5.77734375 125.93359375 C6.45732422 125.52947266 7.13730469 125.12535156 7.83789062 124.70898438 C8.53076172 124.28939453 9.22363281 123.86980469 9.9375 123.4375 C10.59556641 123.04498047 11.25363281 122.65246094 11.93164062 122.24804688 C13.39247029 121.37536112 14.8387298 120.47801696 16.27294922 119.56225586 C18.47342711 118.30165979 20.50426753 117.36572652 22.84033203 116.42407227 C30.27664574 113.16237567 30.27664574 113.16237567 34.8991394 106.80007935 C36.18679289 101.25533301 36.22300843 95.73834299 36.06542969 90.0715332 C35.99996029 87.06067399 36.10524758 84.08854023 36.2265625 81.08007812 C36.48369952 71.4863698 36.48369952 71.4863698 32.39620972 63.16870117 C28.35380475 59.94451991 23.84777888 57.8619447 19.09295654 55.8946228 C16.322195 54.71027597 13.81226304 53.20265819 11.25390625 51.6171875 C9.69036133 50.70268519 8.12657238 49.78859992 6.5625 48.875 C5.74974609 48.39546875 4.93699219 47.9159375 4.09960938 47.421875 C3.32552734 46.97070312 2.55144531 46.51953125 1.75390625 46.0546875 C1.07658447 45.65749512 0.3992627 45.26030273 -0.29858398 44.85107422 C-3.89430453 43.05244001 -5.98005995 44.97574763 -9.2421875 46.81640625 Z M-65.6875 110.5 C-67.110625 111.325 -68.53375 112.15 -70 113 C-70 117.29 -70 121.58 -70 126 C-64.25747519 129.79884942 -64.25747519 129.79884942 -57.75 130.9375 C-56.38875 130.9684375 -56.38875 130.9684375 -55 131 C-53.84350118 132.32657218 -52.70251335 133.67079925 -51.65625 135.0859375 C-40.74208063 147.69901059 -23.36103498 153.87626955 -7.1328125 155.3515625 C10.43170659 155.75324589 27.7470732 150.88536399 41 139 C41.495 137.515 41.495 137.515 42 136 C39.90504697 134.93956349 39.90504697 134.93956349 37 135 C34.96256964 136.29067987 33.16562466 137.7939902 31.2890625 139.30859375 C18.48601652 148.76886492 1.3598009 150.89769899 -14.0625 148.70703125 C-27.90904007 146.15201493 -40.51805128 139.45445628 -50 129 C-50.33 128.01 -50.66 127.02 -51 126 C-50.34 126 -49.68 126 -49 126 C-49 121.71 -49 117.42 -49 113 C-50.423125 112.175 -51.84625 111.35 -53.3125 110.5 C-54.11300781 110.0359375 -54.91351563 109.571875 -55.73828125 109.09375 C-59.84843909 107.1061089 -61.98538877 108.35384856 -65.6875 110.5 Z "
        fill="#F9A42E" transform="translate(99,9)" />
    <path
        d="M0 0 C1.93735837 0.97245638 3.83688591 2.02219426 5.703125 3.125 C6.7653125 3.74890625 7.8275 4.3728125 8.921875 5.015625 C10.56929687 5.99789062 10.56929687 5.99789062 12.25 7 C13.36375 7.65484375 14.4775 8.3096875 15.625 8.984375 C23.8234747 13.8234747 23.8234747 13.8234747 25 15 C25.16432893 17.69532518 25.26353448 20.36632694 25.31982422 23.06469727 C25.34085205 23.91030716 25.36187988 24.75591705 25.38354492 25.62715149 C25.5667258 33.44670181 25.6726274 41.26776615 25.75568962 49.08895969 C25.81228997 54.34542903 25.89378821 59.59884149 26.03564453 64.85375977 C26.17218243 69.93215783 26.24453815 75.00778543 26.27234268 80.08790398 C26.2937903 82.02148432 26.33779058 83.9549546 26.405056 85.8874836 C26.81224775 98.15266208 26.81224775 98.15266208 25 103 C21.09567224 107.08572357 17.23031204 108.84397951 12 111 C9.77468644 112.20124008 7.62137541 113.49140244 5.44921875 114.7890625 C3.19636677 116.06956494 0.94242909 117.34815884 -1.3125 118.625 C-3.76526035 120.01918926 -6.21677057 121.41556634 -8.66796875 122.8125 C-9.58642578 123.33573349 -9.58642578 123.33573349 -10.5234375 123.86953735 C-16.74536023 127.41793907 -22.93915216 131.0141036 -29.125 134.625 C-30.07673096 135.18010254 -31.02846191 135.73520508 -32.0090332 136.30712891 C-32.91613037 136.83741699 -33.82322754 137.36770508 -34.7578125 137.9140625 C-35.62825195 138.41969727 -36.49869141 138.92533203 -37.39550781 139.44628906 C-39.19191618 140.51793725 -40.96653808 141.6266718 -42.72167969 142.76464844 C-43.59469727 143.32442383 -44.46771484 143.88419922 -45.3671875 144.4609375 C-46.52516846 145.22736572 -46.52516846 145.22736572 -47.70654297 146.00927734 C-50.66459171 147.2870889 -51.95971712 146.99626075 -55 146 C-59.01241625 144.09129918 -62.83118936 141.82996381 -66.6875 139.625 C-67.74517578 139.03460938 -68.80285156 138.44421875 -69.89257812 137.8359375 C-70.90126953 137.26359375 -71.90996094 136.69125 -72.94921875 136.1015625 C-74.33113403 135.31773193 -74.33113403 135.31773193 -75.7409668 134.51806641 C-78 133 -78 133 -80 130 C-80.1953125 127.73828125 -80.1953125 127.73828125 -80.125 125.3125 C-80.10695313 124.50425781 -80.08890625 123.69601563 -80.0703125 122.86328125 C-80.04710938 122.24839844 -80.02390625 121.63351563 -80 121 C-78.58847656 121.41572266 -78.58847656 121.41572266 -77.1484375 121.83984375 C-75.90320313 122.20207031 -74.65796875 122.56429687 -73.375 122.9375 C-72.14523438 123.29714844 -70.91546875 123.65679687 -69.6484375 124.02734375 C-52.68844861 128.54879689 -34.50248826 126.16797768 -19 118 C-12.05449838 113.9331879 -12.05449838 113.9331879 -7 108 C-9.75071395 107.79676856 -11.46334552 107.6705349 -13.8515625 109.13671875 C-14.43679687 109.64847656 -15.02203125 110.16023438 -15.625 110.6875 C-28.4669409 120.88409727 -45.01405147 123.6645621 -61 122 C-66.12299879 121.08506082 -71.06069542 119.63186464 -76 118 C-75.67 117.01 -75.34 116.02 -75 115 C-73.02 114.505 -73.02 114.505 -71 114 C-71 110.04 -71 106.08 -71 102 C-62.7675384 96.83935243 -62.7675384 96.83935243 -59.3125 97.5625 C-58.549375 98.036875 -57.78625 98.51125 -57 99 C-54.2492388 100.41631449 -54.2492388 100.41631449 -51 101 C-47.73526567 99.88173923 -47.73526567 99.88173923 -44.53515625 97.8359375 C-43.93875839 97.48745758 -43.34236053 97.13897766 -42.72789001 96.77993774 C-40.82754249 95.66374941 -38.94540401 94.52031874 -37.0625 93.375 C-35.80124391 92.62702509 -34.5388822 91.8809112 -33.27539062 91.13671875 C-30.93287013 89.75397844 -28.59946745 88.35913898 -26.26977539 86.95458984 C-22.8732887 84.92425516 -19.43569645 82.96325512 -16 81 C-16 66.48 -16 51.96 -16 37 C-24.17689994 32.51744918 -24.17689994 32.51744918 -32.36499023 28.05541992 C-33.88394897 27.21394409 -33.88394897 27.21394409 -35.43359375 26.35546875 C-36.47572021 25.78465576 -37.51784668 25.21384277 -38.59155273 24.62573242 C-41 23 -41 23 -42 20 C-35.91121776 15.98140372 -35.91121776 15.98140372 -31.9375 16.0625 C-29 17 -29 17 -26.0625 18.8125 C-23.20385273 20.31122941 -23.20385273 20.31122941 -21.13671875 19.3046875 C-19.38483115 18.26733791 -17.68902198 17.13684172 -16 16 C-15.34 16 -14.68 16 -14 16 C-14 13.69 -14 11.38 -14 9 C-1.97758843 16.03750921 5.53829099 29.18895934 9.5 42.25 C12.45772028 54.88275195 12.93331937 70.13336127 7 82 C6.34 82 5.68 82 5 82 C5 81.34 5 80.68 5 80 C4.37351562 80.3609375 3.74703125 80.721875 3.1015625 81.09375 C2.28429687 81.5578125 1.46703125 82.021875 0.625 82.5 C-0.18710938 82.9640625 -0.99921875 83.428125 -1.8359375 83.90625 C-4 85 -4 85 -6 85 C-6.39037237 92.47749816 -6.39037237 92.47749816 -3.328125 98.9453125 C-0.27078146 100.95672272 2.00532954 102 5.6875 102 C8.2814164 100.87830642 10.60200662 99.49064453 13 98 C13.66 98 14.32 98 15 98 C15 93.71 15 89.42 15 85 C13.515 84.505 13.515 84.505 12 84 C12.80606958 77.82013323 12.80606958 77.82013323 13.51171875 74.8359375 C17.40071415 58.34218397 14.8310225 40.97047418 7 26 C2.40818177 18.60486167 -4.01225417 8.99387292 -12 5 C-12 4.34 -12 3.68 -12 3 C-5.18169805 -1.41184244 -5.18169805 -1.41184244 0 0 Z "
        fill="#9B3894" transform="translate(148,37)" />
    <path
        d="M0 0 C1.93735837 0.97245638 3.83688591 2.02219426 5.703125 3.125 C6.7653125 3.74890625 7.8275 4.3728125 8.921875 5.015625 C10.56929687 5.99789062 10.56929687 5.99789062 12.25 7 C13.36375 7.65484375 14.4775 8.3096875 15.625 8.984375 C23.8234747 13.8234747 23.8234747 13.8234747 25 15 C25.16432893 17.69532518 25.26353448 20.36632694 25.31982422 23.06469727 C25.34085205 23.91030716 25.36187988 24.75591705 25.38354492 25.62715149 C25.5667258 33.44670181 25.6726274 41.26776615 25.75568962 49.08895969 C25.81228997 54.34542903 25.89378821 59.59884149 26.03564453 64.85375977 C26.17218243 69.93215783 26.24453815 75.00778543 26.27234268 80.08790398 C26.2937903 82.02148432 26.33779058 83.9549546 26.405056 85.8874836 C26.81224775 98.15266208 26.81224775 98.15266208 25 103 C21.09567224 107.08572357 17.23031204 108.84397951 12 111 C9.77468644 112.20124008 7.62137541 113.49140244 5.44921875 114.7890625 C3.19636677 116.06956494 0.94242909 117.34815884 -1.3125 118.625 C-3.76526035 120.01918926 -6.21677057 121.41556634 -8.66796875 122.8125 C-9.58642578 123.33573349 -9.58642578 123.33573349 -10.5234375 123.86953735 C-16.74536023 127.41793907 -22.93915216 131.0141036 -29.125 134.625 C-30.07673096 135.18010254 -31.02846191 135.73520508 -32.0090332 136.30712891 C-32.91613037 136.83741699 -33.82322754 137.36770508 -34.7578125 137.9140625 C-35.62825195 138.41969727 -36.49869141 138.92533203 -37.39550781 139.44628906 C-39.19191618 140.51793725 -40.96653808 141.6266718 -42.72167969 142.76464844 C-43.59469727 143.32442383 -44.46771484 143.88419922 -45.3671875 144.4609375 C-46.52516846 145.22736572 -46.52516846 145.22736572 -47.70654297 146.00927734 C-50.66459171 147.2870889 -51.95971712 146.99626075 -55 146 C-59.01241625 144.09129918 -62.83118936 141.82996381 -66.6875 139.625 C-67.74517578 139.03460938 -68.80285156 138.44421875 -69.89257812 137.8359375 C-70.90126953 137.26359375 -71.90996094 136.69125 -72.94921875 136.1015625 C-74.33113403 135.31773193 -74.33113403 135.31773193 -75.7409668 134.51806641 C-78 133 -78 133 -80 130 C-80.1953125 127.73828125 -80.1953125 127.73828125 -80.125 125.3125 C-80.10695313 124.50425781 -80.08890625 123.69601563 -80.0703125 122.86328125 C-80.04710938 122.24839844 -80.02390625 121.63351563 -80 121 C-78.58847656 121.41572266 -78.58847656 121.41572266 -77.1484375 121.83984375 C-75.90320313 122.20207031 -74.65796875 122.56429687 -73.375 122.9375 C-72.14523438 123.29714844 -70.91546875 123.65679687 -69.6484375 124.02734375 C-52.68844861 128.54879689 -34.50248826 126.16797768 -19 118 C-12.05449838 113.9331879 -12.05449838 113.9331879 -7 108 C-10.62885324 107.84850702 -10.62885324 107.84850702 -14 109 C-14 106.69 -14 104.38 -14 102 C-11.03 100.35 -8.06 98.7 -5 97 C-3.783125 97.845625 -2.56625 98.69125 -1.3125 99.5625 C1.93285298 101.60769923 1.93285298 101.60769923 5.6875 102 C8.2814164 100.87830642 10.60200662 99.49064453 13 98 C13.66 98 14.32 98 15 98 C15 93.71 15 89.42 15 85 C13.515 84.505 13.515 84.505 12 84 C12.80606958 77.82013323 12.80606958 77.82013323 13.51171875 74.8359375 C17.40071415 58.34218397 14.8310225 40.97047418 7 26 C2.40818177 18.60486167 -4.01225417 8.99387292 -12 5 C-12 4.34 -12 3.68 -12 3 C-5.18169805 -1.41184244 -5.18169805 -1.41184244 0 0 Z "
        fill="#854499" transform="translate(148,37)" />
    <path
        d="M0 0 C0.47576234 3.7730597 0.70612452 7.24805478 0 11 C-2.31084305 13.49022356 -4.82220751 14.8450192 -8 16 C-8.66 16 -9.32 16 -10 16 C-10 17.65 -10 19.3 -10 21 C-11.52367188 21.43699219 -11.52367188 21.43699219 -13.078125 21.8828125 C-32.14652027 27.49540554 -48.06281395 35.86408539 -58.16796875 53.73828125 C-63.67201331 63.94997717 -66.9231109 73.71861353 -67.1953125 85.40234375 C-67.42019368 94.28515018 -67.42019368 94.28515018 -69.54296875 96.90234375 C-71.96154785 98.3036236 -74.19270153 99 -77 99 C-77.33049472 91.31485918 -77.5576018 83.63155534 -77.71411133 75.94091797 C-77.77936358 73.32726589 -77.86799258 70.71408622 -77.98071289 68.10205078 C-78.86181492 47.15494648 -78.86181492 47.15494648 -75.89657593 42.13018799 C-72.58479322 38.77747207 -68.35716369 37.49915239 -64 36 C-61.79135129 34.78132277 -59.60695934 33.51763518 -57.44921875 32.2109375 C-55.19636677 30.93043506 -52.94242909 29.65184116 -50.6875 28.375 C-48.23473965 26.98081074 -45.78322943 25.58443366 -43.33203125 24.1875 C-42.71972656 23.83867767 -42.10742188 23.48985535 -41.4765625 23.13046265 C-35.25463977 19.58206093 -29.06084784 15.9858964 -22.875 12.375 C-21.92326904 11.81989746 -20.97153809 11.26479492 -19.9909668 10.69287109 C-14.62088956 7.55352938 -9.28990007 4.36217302 -4.00048828 1.08837891 C-2 0 -2 0 0 0 Z "
        fill="#F0EA58" transform="translate(96,8)" />
    <path
        d="M0 0 C4.87238891 2.5756976 8.82999443 4.85935805 10.71899414 10.27148438 C12.01879811 17.35810249 12.06829129 24.69059308 9.77807617 31.57568359 C6.64251778 36.10845261 1.80630957 37.76599115 -3.22192383 39.57568359 C-4.06368164 40.14673828 -4.90543945 40.71779297 -5.77270508 41.30615234 C-9.13217858 43.04750623 -10.61975694 42.67141662 -14.22192383 41.57568359 C-16.91256156 40.25806665 -19.43592959 38.73003067 -21.97192383 37.13818359 C-22.97932617 36.52620117 -22.97932617 36.52620117 -24.00708008 35.90185547 C-26.6415278 34.28370271 -29.02841275 32.76919468 -31.22192383 30.57568359 C-32.5740694 23.09010304 -33.68152232 12.21248299 -29.30395508 5.73974609 C-26.68163284 3.94274388 -24.16918612 2.75541062 -21.22192383 1.57568359 C-19.631481 0.58702994 -18.04762103 -0.41232689 -16.47192383 -1.42431641 C-10.89782115 -4.82834858 -5.53192731 -2.54560971 0 0 Z "
        fill="#EE3839" transform="translate(106.221923828125,76.42431640625)" />
    <path
        d="M0 0 C3.63 1.98 7.26 3.96 11 6 C11.78850534 12.48326616 11.78850534 12.48326616 11 16 C8.91086817 18.08483321 6.85305232 19.34819239 4.26171875 20.74609375 C2.0227686 21.8358518 2.0227686 21.8358518 0.72680664 23.36108398 C-1.58370611 25.55399676 -4.11473624 26.91507242 -6.890625 28.4765625 C-7.46789841 28.80361679 -8.04517181 29.13067108 -8.63993835 29.46763611 C-10.5073867 30.52472221 -12.37848067 31.57514079 -14.25 32.625 C-16.79971113 34.06109642 -19.34768431 35.50023689 -21.89453125 36.94140625 C-22.51650894 37.29301315 -23.13848663 37.64462006 -23.77931213 38.00688171 C-27.2340153 39.9684351 -30.64543244 41.98030433 -34.01171875 44.08984375 C-34.69524414 44.51765137 -35.37876953 44.94545898 -36.08300781 45.38623047 C-37.80122208 46.47606148 -39.50853986 47.58302053 -41.21484375 48.69140625 C-44.56006501 50.26314415 -45.511845 49.99292015 -49 49 C-53.01241625 47.09129918 -56.83118936 44.82996381 -60.6875 42.625 C-61.74517578 42.03460938 -62.80285156 41.44421875 -63.89257812 40.8359375 C-65.40561523 39.97742188 -65.40561523 39.97742188 -66.94921875 39.1015625 C-68.33113403 38.31773193 -68.33113403 38.31773193 -69.7409668 37.51806641 C-72 36 -72 36 -74 33 C-74.1953125 30.73828125 -74.1953125 30.73828125 -74.125 28.3125 C-74.10695313 27.50425781 -74.08890625 26.69601563 -74.0703125 25.86328125 C-74.04710938 25.24839844 -74.02390625 24.63351563 -74 24 C-73.05898437 24.27714844 -72.11796875 24.55429688 -71.1484375 24.83984375 C-69.90320313 25.20207031 -68.65796875 25.56429687 -67.375 25.9375 C-66.14523438 26.29714844 -64.91546875 26.65679687 -63.6484375 27.02734375 C-46.68844861 31.54879689 -28.50248826 29.16797768 -13 21 C-6.05449838 16.9331879 -6.05449838 16.9331879 -1 11 C-4.62885324 10.84850702 -4.62885324 10.84850702 -8 12 C-8.5 8.8125 -8.5 8.8125 -8 5 C-5.4972252 2.78262935 -3.00854325 1.55128011 0 0 Z "
        fill="#983894" transform="translate(142,134)" />
    <path
        d="M0 0 C16.64011177 7.7927284 32.27748303 17.53144513 48 27 C45.11752601 29.9497037 43.08771089 31.88516976 39 33 C36.30594759 31.79512229 33.99443083 30.28716256 31.546875 28.640625 C28.16151551 26.45987196 24.80796292 25.26932097 21 24 C21 25.65 21 27.3 21 29 C21.69480469 29.10183594 22.38960937 29.20367187 23.10546875 29.30859375 C28.65269669 30.6336401 33.6093757 33.38580848 38 37 C39.09724418 40.16491537 38.70747781 41.63948042 38 45 C34.77623741 47.04971625 31.65315671 48.8446825 28 50 C25.1994146 49.17341945 23.44669085 47.69386289 21 46 C17.32960087 46.07340798 15.49972404 46.67091344 12.4375 48.6875 C10 50 10 50 7.5 49.375 C6.675 48.92125 5.85 48.4675 5 48 C4.071875 47.690625 3.14375 47.38125 2.1875 47.0625 C0 45 0 45 -0.3125 42.359375 C-0.3125 39.55625031 -0.21349915 36.79446663 0 34 C1.45537568 33.16151196 2.91440373 32.32936066 4.375 31.5 C5.59316406 30.80390625 5.59316406 30.80390625 6.8359375 30.09375 C9 29 9 29 11 29 C11.23010384 24.81752435 11.18276987 21.03809097 10 17 C7.51798909 15.1099508 5.00759067 13.97050144 2.19140625 12.64453125 C0 11 0 11 -0.66015625 8.19921875 C-0.62820013 5.4048333 -0.44163135 2.7577424 0 0 Z "
        fill="#F05832" transform="translate(96,8)" />
    <path
        d="M0 0 C2.66015625 1.171875 2.66015625 1.171875 5 3 C5.48828125 5.91796875 5.48828125 5.91796875 5.3125 9.1875 C5.24482422 10.81751953 5.24482422 10.81751953 5.17578125 12.48046875 C5.11777344 13.31191406 5.05976562 14.14335938 5 15 C5.71115967 15.26731934 6.42231934 15.53463867 7.1550293 15.81005859 C10.08642318 17.03614748 12.75947007 18.46629021 15.51953125 20.0390625 C16.54111328 20.61914062 17.56269531 21.19921875 18.61523438 21.796875 C19.67033203 22.40015625 20.72542969 23.0034375 21.8125 23.625 C22.88693359 24.23601562 23.96136719 24.84703125 25.06835938 25.4765625 C27.71386076 26.98155885 30.3576625 28.48945791 33 30 C33 30.66 33 31.32 33 32 C26.25 36 26.25 36 24 36 C24.05800781 36.83144531 24.11601563 37.66289062 24.17578125 38.51953125 C24.22089844 39.60621094 24.26601562 40.69289062 24.3125 41.8125 C24.37050781 42.89144531 24.42851563 43.97039062 24.48828125 45.08203125 C24 48 24 48 21.85546875 50.01171875 C18.08569904 51.31644069 16.5878882 50.64348427 13 49 C6.4100401 45.44723357 -0.53582979 41.15537463 -5 35 C-5 34.01 -5 33.02 -5 32 C-4.34 32 -3.68 32 -3 32 C-3 27.71 -3 23.42 -3 19 C-5.5831769 17.96672924 -8.17310495 16.94229835 -10.8125 16.0625 C-13 14 -13 14 -13.3125 11.359375 C-13.3125 8.55625031 -13.21349915 5.79446663 -13 3 C-5.65873016 -1.8452381 -5.65873016 -1.8452381 0 0 Z "
        fill="#F05832" transform="translate(53,103)" />
    <path
        d="M0 0 C0.47527715 3.76921184 0.72666877 7.25444996 0 11 C-1.78125 12.45703125 -1.78125 12.45703125 -4 13.5 C-6.23257122 14.4654917 -6.23257122 14.4654917 -8 16 C-8.96209942 19.77008727 -9.00167131 23.23790892 -8 27 C-6.02496339 28.7161561 -6.02496339 28.7161561 -4 30 C-4 30.66 -4 31.32 -4 32 C-20.62615063 37.49300552 -35.37384937 37.49300552 -52 32 C-51.505 30.515 -51.505 30.515 -51 29 C-49.68 28.67 -48.36 28.34 -47 28 C-47 24.04 -47 20.08 -47 16 C-38.7675384 10.83935243 -38.7675384 10.83935243 -35.3125 11.5625 C-34.549375 12.036875 -33.78625 12.51125 -33 13 C-30.23769696 14.40725898 -30.23769696 14.40725898 -27 15 C-23.83105177 13.91327371 -23.83105177 13.91327371 -20.76171875 11.9140625 C-20.19548294 11.57829193 -19.62924713 11.24252136 -19.04585266 10.89657593 C-17.24760768 9.82486398 -15.4678741 8.72609364 -13.6875 7.625 C-11.8858825 6.53764742 -10.08096305 5.45594812 -8.27558899 4.37484741 C-6.64663076 3.39511452 -5.02562432 2.40219693 -3.4050293 1.40869141 C-1 0 -1 0 0 0 Z "
        fill="#CB3191" transform="translate(124,123)" />
    <path
        d="M0 0 C0.969375 0.598125 1.93875 1.19625 2.9375 1.8125 C5.79026569 3.32477463 5.79026569 3.32477463 7.7578125 2.26953125 C8.96132335 1.50626571 10.15676513 0.73012646 11.34375 -0.05859375 C13 -1 13 -1 15.5625 -0.9375 C16.366875 -0.628125 17.17125 -0.31875 18 0 C19.0725 0.268125 20.145 0.53625 21.25 0.8125 C22.61125 1.8953125 22.61125 1.8953125 24 3 C24.28515625 5.69140625 24.28515625 5.69140625 24.3125 8.875 C24.29190016 12.06864205 24.29190016 12.06864205 25 15 C27.69702816 17.50144215 30.54594342 18.79980256 34 20 C34.47576234 23.7730597 34.70612452 27.24805478 34 31 C31.68915695 33.49022356 29.17779249 34.8450192 26 36 C25.34 36 24.68 36 24 36 C24 39.96 24 43.92 24 48 C20.7 49.65 17.4 51.3 14 53 C14.10062744 52.07364746 14.20125488 51.14729492 14.30493164 50.19287109 C15.95506062 34.87238854 15.95506062 34.87238854 13 20 C7.15810292 13.20875159 -1.30999386 9.99220967 -9.60742188 7.10205078 C-10.39697266 6.73837402 -11.18652344 6.37469727 -12 6 C-12.33 5.01 -12.66 4.02 -13 3 C-5.6988266 -1.81877445 -5.6988266 -1.81877445 0 0 Z "
        fill="#A21767" transform="translate(119,54)" />
    <path
        d="M0 0 C0.33 0.99 0.66 1.98 1 3 C3.08812458 4.45644757 3.08812458 4.45644757 5.5625 5.6875 C6.38878906 6.12449219 7.21507812 6.56148437 8.06640625 7.01171875 C8.70449219 7.33785156 9.34257813 7.66398437 10 8 C11.17346745 12.03427371 11.40466585 15.00327091 10 19 C5.80699085 22.95274177 0.31002718 25.38035495 -4.81054688 27.91162109 C-7.7835262 29.3894915 -10.66454374 31.00533073 -13.5625 32.625 C-15.04001682 33.41974159 -16.51844007 34.21282129 -18 35 C-17.979375 34.26394531 -17.95875 33.52789062 -17.9375 32.76953125 C-18.00299997 29.67056386 -18.18299783 26.99567463 -19 24 C-20.9548307 22.31480112 -22.87026025 21.37505309 -25.1875 20.2578125 C-27 19 -27 19 -27.75 16.9296875 C-28 14.6875 -28 14.6875 -28 11 C-19.49633534 5.57212894 -10.35126073 0 0 0 Z "
        fill="#F27131" transform="translate(86,34)" />
    <path
        d="M0 0 C6.87845304 1.37569061 6.87845304 1.37569061 10 4 C10.48828125 7.13671875 10.48828125 7.13671875 10.3125 10.6875 C10.26738281 11.86699219 10.22226562 13.04648438 10.17578125 14.26171875 C10.11777344 15.16535156 10.05976563 16.06898438 10 17 C10.928125 17.28875 11.85625 17.5775 12.8125 17.875 C16 19 16 19 19 21 C20.423125 20.87625 20.423125 20.87625 21.875 20.75 C25 21 25 21 27.125 23.4375 C27.52203125 23.98019531 27.9190625 24.52289063 28.328125 25.08203125 C33.03724529 30.48431644 39.67009159 35.05839538 46.1875 38 C49 40 49 40 49.60546875 42.1640625 C49.875 44.625 49.875 44.625 49.9296875 46.9765625 C49.86203323 49.07063489 49.86203323 49.07063489 51 51 C47.38159753 49.63000443 44.05302555 48.01395659 40.67578125 46.12890625 C39.65500488 45.55938232 38.63422852 44.9898584 37.58251953 44.40307617 C35.96385986 43.49199097 35.96385986 43.49199097 34.3125 42.5625 C33.20503418 41.94157471 32.09756836 41.32064941 30.95654297 40.6809082 C23.33205214 36.3810564 15.81123482 31.94032738 8.39575195 27.28930664 C5.61644621 25.55228204 3.12249229 24.04083076 0 23 C0 15.41 0 7.82 0 0 Z "
        fill="#F27131" transform="translate(19,118)" />
    <path
        d="M0 0 C0.47576234 3.7730597 0.70612452 7.24805478 0 11 C-2.31084305 13.49022356 -4.82220751 14.8450192 -8 16 C-8.66 16 -9.32 16 -10 16 C-10 17.65 -10 19.3 -10 21 C-11.01578125 21.29132812 -12.0315625 21.58265625 -13.078125 21.8828125 C-28.67362973 26.47319465 -42.9542614 32.60568187 -53 46 C-53.99 45.67 -54.98 45.34 -56 45 C-56.24463575 42.96438894 -56.41837613 40.92018638 -56.5625 38.875 C-56.66691406 37.73804688 -56.77132812 36.60109375 -56.87890625 35.4296875 C-55.69731195 30.81884398 -53.69453666 29.87163532 -49.71704102 27.50537109 C-48.82041748 27.00859863 -47.92379395 26.51182617 -47 26 C-46.08855225 25.47615723 -45.17710449 24.95231445 -44.23803711 24.41259766 C-41.23595371 22.70547578 -38.21455633 21.03740171 -35.1875 19.375 C-26.00742574 14.29520874 -16.94907217 9.06321253 -8.01831055 3.55615234 C-7.25043213 3.0864502 -6.48255371 2.61674805 -5.69140625 2.1328125 C-4.68895874 1.51237061 -4.68895874 1.51237061 -3.66625977 0.87939453 C-2 0 -2 0 0 0 Z "
        fill="#FAA52E" transform="translate(96,8)" />
    <path
        d="M0 0 C0.969375 0.598125 1.93875 1.19625 2.9375 1.8125 C5.79026569 3.32477463 5.79026569 3.32477463 7.7578125 2.26953125 C8.96132335 1.50626571 10.15676513 0.73012646 11.34375 -0.05859375 C13 -1 13 -1 15.5625 -0.9375 C18.48747943 0.18749209 21.23751588 1.52239221 24 3 C24.60434442 7.1498317 24.89091724 10.88081793 24 15 C21.02501908 17.84971856 17.79515318 19.45483049 14 21 C9.81414198 18.54287221 5.6297935 16.08329372 1.44921875 13.6171875 C-1.14495889 12.0875835 -3.74473021 10.57171511 -6.35546875 9.0703125 C-7.24878906 8.55210938 -8.14210938 8.03390625 -9.0625 7.5 C-9.83722656 7.0565625 -10.61195312 6.613125 -11.41015625 6.15625 C-11.93480469 5.7746875 -12.45945312 5.393125 -13 5 C-13 4.34 -13 3.68 -13 3 C-5.6988266 -1.81877445 -5.6988266 -1.81877445 0 0 Z "
        fill="#B01B49" transform="translate(119,54)" />
    <path
        d="M0 0 C1.94934606 0.98403415 3.86053235 2.04555663 5.73828125 3.16015625 C6.80498047 3.78857422 7.87167969 4.41699219 8.97070312 5.06445312 C10.07349609 5.72380859 11.17628906 6.38316406 12.3125 7.0625 C13.43462891 7.72572266 14.55675781 8.38894531 15.71289062 9.07226562 C18.4791287 10.70846602 21.2412485 12.35121864 24 14 C20.3359375 17.8671875 20.3359375 17.8671875 17.3125 19.0625 C14.3200503 21.56968759 14.52863441 22.87654125 14.1875 26.6875 C14.10256321 28.45739906 14.03308641 30.228373 14 32 C12.68 32 11.36 32 10 32 C8.39453125 29.7265625 8.39453125 29.7265625 6.8125 26.625 C2.57841584 18.92914317 -2.72383162 12.53222466 -9.5625 7 C-10.366875 6.34 -11.17125 5.68 -12 5 C-12 4.34 -12 3.68 -12 3 C-5.17840333 -1.41397432 -5.17840333 -1.41397432 0 0 Z "
        fill="#D04899" transform="translate(148,37)" />
    <path
        d="M0 0 C1.41152344 0.41572266 1.41152344 0.41572266 2.8515625 0.83984375 C4.09679687 1.20207031 5.34203125 1.56429687 6.625 1.9375 C7.85476562 2.29714844 9.08453125 2.65679687 10.3515625 3.02734375 C16.81869897 4.75145187 22.72661611 5.13142264 29.375 5.0625 C30.62216797 5.05573242 30.62216797 5.05573242 31.89453125 5.04882812 C33.92971897 5.03713164 35.96486923 5.01919935 38 5 C37.61328125 6.93359375 37.61328125 6.93359375 37 9 C35.1875 10.0625 35.1875 10.0625 33 11 C30.74385306 12.1452294 30.74385306 12.1452294 29 14 C27.99224897 18.01525799 27.89471465 21.8741303 28 26 C22.45090022 23.89299002 17.45820897 20.99642627 12.3125 18.0625 C11.35021484 17.52431641 10.38792969 16.98613281 9.39648438 16.43164062 C8.47802734 15.90892578 7.55957031 15.38621094 6.61328125 14.84765625 C5.77579346 14.37336182 4.93830566 13.89906738 4.07543945 13.41040039 C2 12 2 12 0 9 C-0.1953125 6.73828125 -0.1953125 6.73828125 -0.125 4.3125 C-0.10695313 3.50425781 -0.08890625 2.69601563 -0.0703125 1.86328125 C-0.04710938 1.24839844 -0.02390625 0.63351563 0 0 Z "
        fill="#CB3091" transform="translate(68,158)" />
    <path
        d="M0 0 C2.43853057 1.28975172 4.87584412 2.58171525 7.3125 3.875 C8.00279297 4.23980469 8.69308594 4.60460937 9.40429688 4.98046875 C10.07138672 5.33496094 10.73847656 5.68945312 11.42578125 6.0546875 C12.03848877 6.37937012 12.65119629 6.70405273 13.2824707 7.03857422 C14.90258648 7.94547058 16.45515434 8.9701029 18 10 C18 10.66 18 11.32 18 12 C11.25 16 11.25 16 9 16 C9.05800781 16.83144531 9.11601563 17.66289062 9.17578125 18.51953125 C9.22089844 19.60621094 9.26601562 20.69289062 9.3125 21.8125 C9.37050781 22.89144531 9.42851563 23.97039062 9.48828125 25.08203125 C9 28 9 28 6.65625 29.91796875 C4 31 4 31 1.1875 30.5 C0.135625 30.005 -0.91625 29.51 -2 29 C-2.71285156 28.67773438 -3.42570312 28.35546875 -4.16015625 28.0234375 C-6.42598531 26.84856317 -8.19480782 25.80968271 -10 24 C-10.71198017 21.04802066 -10.41657763 19.07226 -10 16 C-9.04287109 15.65001953 -9.04287109 15.65001953 -8.06640625 15.29296875 C-5.32701292 14.083533 -3.24335761 12.9978581 -1 11 C0.09034535 7.30321005 0.16788169 3.83441772 0 0 Z "
        fill="#BD2025" transform="translate(68,123)" />
    <path
        d="M0 0 C0.11858849 9.67343274 0.11858849 9.67343274 -2.5546875 12.84375 C-4.94617466 14.55053751 -6.9874961 16 -10 16 C-10 19.96 -10 23.92 -10 28 C-13.63 29.98 -17.26 31.96 -21 34 C-23.87385996 31.12614004 -22.67626902 23.1477281 -22.73217773 19.30102539 C-22.56221274 11.83414012 -22.56221274 11.83414012 -20.0859375 8.16015625 C-17.45995388 6.36749561 -14.94984902 5.1758426 -12 4 C-10.34574084 3.01400102 -8.699208 2.01486664 -7.0625 1 C-3.39311714 -1.13103905 -3.39311714 -1.13103905 0 0 Z "
        fill="#F05833" transform="translate(97,74)" />
    <path
        d="M0 0 C0 10.89 0 21.78 0 33 C-8 37 -8 37 -10 37 C-10.47959778 34.77092605 -10.9586608 32.54173703 -11.4375 30.3125 C-11.83775391 28.45044922 -11.83775391 28.45044922 -12.24609375 26.55078125 C-12.85055136 23.70387985 -13.43764684 20.85544374 -14 18 C-13.34 17.67 -12.68 17.34 -12 17 C-11.92641712 15.27227405 -11.916498 13.54166463 -11.9375 11.8125 C-11.70227688 8.19947294 -11.55255361 6.5720555 -9.0078125 3.9375 C-3.08263221 0 -3.08263221 0 0 0 Z "
        fill="#9B3995" transform="translate(173,52)" />
    <path
        d="M0 0 C2.06339661 20.76582811 2.06339661 20.76582811 -1.1953125 25.87353516 C-4.61092466 29.00341822 -8.67408375 30.44307586 -13 32 C-13.90363281 32.57105469 -14.80726562 33.14210937 -15.73828125 33.73046875 C-16.48464844 34.14941406 -17.23101562 34.56835938 -18 35 C-18.99 34.67 -19.98 34.34 -21 34 C-21.10659597 30.1958562 -20.98925088 26.68767869 -20 23 C-17.65560534 20.56801257 -15.15698296 19.16853562 -12 18 C-11.34 18 -10.68 18 -10 18 C-10.10441406 17.20335938 -10.20882812 16.40671875 -10.31640625 15.5859375 C-10.57625272 12.19555979 -10.64692345 9.34527523 -10 6 C-7.63524958 3.43818705 -3.73314733 0 0 0 Z "
        fill="#ED3E88" transform="translate(116,84)" />
    <path
        d="M0 0 C0 0.66 0 1.32 0 2 C-0.66 2 -1.32 2 -2 2 C-1.87238281 2.56847656 -1.74476562 3.13695312 -1.61328125 3.72265625 C-1.26152721 6.45902859 -1.24052786 8.3333141 -2 11 C-5.29807045 13.95376639 -9.14548408 15.85639179 -13 18 C-18.44486918 21.7823137 -22.99949299 25.70900686 -27 31 C-27.99 30.67 -28.98 30.34 -30 30 C-30.24463575 27.96438894 -30.41837613 25.92018638 -30.5625 23.875 C-30.71912109 22.16957031 -30.71912109 22.16957031 -30.87890625 20.4296875 C-29.69224635 15.79907686 -27.59980759 14.83773575 -23.60864258 12.46435547 C-22.74779053 11.98111816 -21.88693848 11.49788086 -21 11 C-19.34480258 10.00301828 -17.6898532 9.00562463 -16.03515625 8.0078125 C-14.37939294 7.04379609 -12.72183337 6.08285832 -11.0625 5.125 C-9.78922852 4.37863281 -9.78922852 4.37863281 -8.49023438 3.6171875 C-7.68005859 3.14796875 -6.86988281 2.67875 -6.03515625 2.1953125 C-5.3069165 1.77266113 -4.57867676 1.35000977 -3.82836914 0.91455078 C-2 0 -2 0 0 0 Z "
        fill="#FDCF29" transform="translate(70,23)" />
    <path
        d="M0 0 C-0.27714844 1.0415625 -0.55429687 2.083125 -0.83984375 3.15625 C-1.20937157 4.60324136 -1.57495941 6.05124221 -1.9375 7.5 C-2.12787842 8.26014404 -2.31825684 9.02028809 -2.5144043 9.8034668 C-3.7841593 15.20424731 -4.23507358 20.27909177 -4.3125 25.8125 C-4.56197704 32.46303277 -4.56197704 32.46303277 -6.5390625 34.88671875 C-8.9569991 36.30464453 -11.18489019 37 -14 37 C-14 29.74 -14 22.48 -14 15 C-13.34 15 -12.68 15 -12 15 C-12.0928125 14.26394531 -12.185625 13.52789062 -12.28125 12.76953125 C-12.50957955 9.68300497 -12.5643267 7.04821921 -12 4 C-8.63449372 0.14569399 -4.95148962 -1.73971257 0 0 Z "
        fill="#FBE93A" transform="translate(33,70)" />
    <path
        d="M0 0 C1.11375 0.7425 1.11375 0.7425 2.25 1.5 C3.178125 1.809375 4.10625 2.11875 5.0625 2.4375 C7.79920685 5.0178236 7.75728511 6.18474294 8 9.875 C7.85990445 12.9818249 7.73135105 14.842612 5.8828125 17.3671875 C2.92502692 19.69397882 0.97749933 20.5 -2.8125 20.5 C-5.9690886 19.42541665 -8.8267805 18.10081068 -11.75 16.5 C-11.75 12.54 -11.75 8.58 -11.75 4.5 C-3.54362416 -0.6442953 -3.54362416 -0.6442953 0 0 Z "
        fill="#E12572" transform="translate(88.75,134.5)" />
    <path
        d="M0 0 C2.63671875 1.1875 2.63671875 1.1875 5 3 C6.02205513 7.05967151 5.80098359 10.90483036 5 15 C2.3125 17.8125 2.3125 17.8125 -1 19 C-5.57541668 19 -9.19066262 16.31547958 -13 14 C-13 10.37 -13 6.74 -13 3 C-5.65873016 -1.8452381 -5.65873016 -1.8452381 0 0 Z "
        fill="#F37132" transform="translate(53,103)" />
    <path
        d="M0 0 C1.69270833 1.00911458 3.38541667 2.01822917 5.078125 3.02734375 C5.95192418 8.09537902 5.95192418 8.09537902 5.078125 11.02734375 C1.19813833 14.4350474 -3.74365515 17.29229983 -8.921875 18.02734375 C-11.671875 16.77734375 -11.671875 16.77734375 -13.921875 14.02734375 C-14.82818623 10.17107831 -14.92635929 6.8693543 -13.921875 3.02734375 C-9.69597563 -1.71560684 -5.62064121 -2.84459281 0 0 Z "
        fill="#B162A6" transform="translate(128.921875,135.97265625)" />
    <path
        d="M0 0 C1.051875 0.495 2.10375 0.99 3.1875 1.5 C3.90035156 1.82226562 4.61320312 2.14453125 5.34765625 2.4765625 C7.61348531 3.65143683 9.38230782 4.69031729 11.1875 6.5 C11.89948017 9.45197934 11.60407763 11.42774 11.1875 14.5 C7.97929301 16.718441 4.96879117 18.47802941 1.1875 19.5 C-2.59379117 18.47802941 -5.60429301 16.718441 -8.8125 14.5 C-8.77944498 12.56177404 -8.71000095 10.62414332 -8.625 8.6875 C-8.59019531 7.60855469 -8.55539063 6.52960937 -8.51953125 5.41796875 C-7.8125 2.5 -7.8125 2.5 -5.4375 0.58203125 C-2.8125 -0.5 -2.8125 -0.5 0 0 Z "
        fill="#EE3739" transform="translate(122.8125,38.5)" />
    <path
        d="M0 0 C3.63 1.98 7.26 3.96 11 6 C11.69528296 12.51827772 11.69528296 12.51827772 11 16 C8.70999586 18.58530881 6.2569414 19.9082878 3 21 C-0.47861474 20.92094057 -2.9805222 19.67748767 -6 18 C-6 16 -6 16 -3.5 13.375 C-2.675 12.59125 -1.85 11.8075 -1 11 C-4.62885324 10.84850702 -4.62885324 10.84850702 -8 12 C-8.5 8.8125 -8.5 8.8125 -8 5 C-5.4972252 2.78262935 -3.00854325 1.55128011 0 0 Z "
        fill="#6B297A" transform="translate(142,134)" />
    <path
        d="M0 0 C2.43189168 0.85116209 4.69691285 1.84845643 7 3 C7 6.96 7 10.92 7 15 C-1.49841811 20.31151132 -1.49841811 20.31151132 -5.41015625 19.5 C-8.53933332 17.77355748 -10.55512668 16.32732694 -11.71484375 12.8671875 C-12 10.6875 -12 10.6875 -12 7 C-10.37554381 6.01993141 -8.75041739 5.04097364 -7.125 4.0625 C-6.22007813 3.51722656 -5.31515625 2.97195312 -4.3828125 2.41015625 C-2.94798364 1.56101983 -1.49124552 0.74562276 0 0 Z "
        fill="#D98A26" transform="translate(70,38)" />
    <path
        d="M0 0 C0 2.31 0 4.62 0 7 C-6.75 11 -6.75 11 -9 11 C-8.9071875 11.80824219 -8.814375 12.61648437 -8.71875 13.44921875 C-8.49335979 16.78579876 -8.41270527 19.70244885 -9 23 C-10.94155945 24.69397804 -12.83929457 25.5173461 -15.171875 26.58984375 C-17.27257329 27.89818475 -17.27257329 27.89818475 -17.578125 30.62890625 C-17.64987824 32.59443254 -17.70261329 34.56076466 -17.734375 36.52734375 C-18 39 -18 39 -20.4375 41.1875 C-23 42 -23 42 -25 42 C-22.64710414 26.12673243 -15.23866607 11.52243933 -3 1 C-1 0 -1 0 0 0 Z "
        fill="#FBE83A" transform="translate(58,46)" />
    <path
        d="M0 0 C0.33 0.66 0.66 1.32 1 2 C2.6635479 2.67441131 4.33066942 3.3400321 6 4 C8.78423528 5.61516411 9.83082165 6.36459758 10.671875 9.5234375 C10.7544465 12.53729731 10.74339259 15.0699029 10 18 C8.05741415 19.5936957 6.11505572 20.47525154 3.84765625 21.54296875 C1.73240578 22.91500806 1.73240578 22.91500806 1.24609375 25.73828125 C1.0239746 28.51300772 0.92205545 31.21835383 1 34 C0.34 34 -0.32 34 -1 34 C-1.02465288 29.31860746 -1.04283739 24.63725241 -1.05493164 19.95581055 C-1.05997157 18.36205386 -1.0668035 16.76830181 -1.07543945 15.17456055 C-1.08751999 12.88849747 -1.09323155 10.60249533 -1.09765625 8.31640625 C-1.10281754 7.59973282 -1.10797882 6.88305939 -1.11329651 6.14466858 C-1.11349263 4.42936328 -1.06192007 2.71418734 -1 1 C-0.67 0.67 -0.34 0.34 0 0 Z "
        fill="#D6DF42" transform="translate(20,51)" />
    <path
        d="M0 0 C2.3125 1 2.3125 1 4 3 C4.69793133 6.14367361 4.74482724 8.86269739 4 12 C1.375 14.6875 1.375 14.6875 -2 16 C-5.69412078 15.27566259 -7.86770641 14.08819573 -11 12 C-11.76500049 8.92813757 -11.67815938 6.08453136 -11 3 C-7.39269568 -0.52341352 -4.80128703 -1.89524488 0 0 Z "
        fill="#552263" transform="translate(156,121)" />
    <path
        d="M0 0 C2.3125 1 2.3125 1 4 3 C4.69793133 6.14367361 4.74482724 8.86269739 4 12 C1.375 14.6875 1.375 14.6875 -2 16 C-5.69412078 15.27566259 -7.86770641 14.08819573 -11 12 C-11.76500049 8.92813757 -11.67815938 6.08453136 -11 3 C-7.39269568 -0.52341352 -4.80128703 -1.89524488 0 0 Z "
        fill="#F37132" transform="translate(43,121)" />
    <path
        d="M0 0 C1.175625 0.7115625 1.175625 0.7115625 2.375 1.4375 C3.5196875 2.0253125 3.5196875 2.0253125 4.6875 2.625 C6.375 4.4375 6.375 4.4375 6.8125 7.9375 C6.375 11.4375 6.375 11.4375 5.0625 13.25 C0.51733577 16.44844891 0.51733577 16.44844891 -2.0625 16.25 C-6.63020291 14.80170395 -6.63020291 14.80170395 -8.625 12.4375 C-9.32277951 9.29451022 -9.37511403 6.57331503 -8.625 3.4375 C-5.68574042 0.49824042 -4.18499565 -0.89678478 0 0 Z "
        fill="#F37132" transform="translate(97.625,22.5625)" />
    <path
        d="M0 0 C0.86625 0.474375 1.7325 0.94875 2.625 1.4375 C-1.85919632 6.26567508 -7.24383218 9.0449089 -12.9375 12.25 C-13.99130859 12.86037109 -15.04511719 13.47074219 -16.13085938 14.09960938 C-17.14083984 14.67130859 -18.15082031 15.24300781 -19.19140625 15.83203125 C-20.11381104 16.35643799 -21.03621582 16.88084473 -21.98657227 17.42114258 C-24.375 18.4375 -24.375 18.4375 -27.375 17.4375 C-26.41787109 17.07011719 -26.41787109 17.07011719 -25.44140625 16.6953125 C-22.75919963 15.48183368 -20.61029733 14.36448046 -18.375 12.4375 C-17.74333122 10.03637875 -17.74333122 10.03637875 -17.8125 7.4375 C-17.7716394 2.88154264 -17.7716394 2.88154264 -15.7734375 0.64453125 C-9.92904532 -3.26267476 -6.3249251 -2.92820606 0 0 Z "
        fill="#782A8E" transform="translate(170.375,137.5625)" />
    <path
        d="M0 0 C3.3125 1.9375 3.3125 1.9375 6 4 C6 4.66 6 5.32 6 6 C4.47119141 7.14501953 4.47119141 7.14501953 2.3515625 8.3828125 C1.59359375 8.82753906 0.835625 9.27226562 0.0546875 9.73046875 C-0.74710938 10.19066406 -1.54890625 10.65085938 -2.375 11.125 C-3.1690625 11.59292969 -3.963125 12.06085938 -4.78125 12.54296875 C-10.7277469 16 -10.7277469 16 -13 16 C-13.47058365 11.9020007 -13.69409951 8.07982152 -13 4 C-9.66160658 -0.04506064 -4.98228788 -2.22891826 0 0 Z "
        fill="#74206A" transform="translate(109,168)" />
    <path
        d="M0 0 C2.72158778 1.23663386 5.34256407 2.62699144 8 4 C8 7.63 8 11.26 8 15 C0.25 19 0.25 19 -2 19 C-2.47959778 16.77092605 -2.9586608 14.54173703 -3.4375 12.3125 C-3.83775391 10.45044922 -3.83775391 10.45044922 -4.24609375 8.55078125 C-4.85055136 5.70387985 -5.43764684 2.85544374 -6 0 C-3.44473328 -1.27763336 -2.67397428 -0.86367418 0 0 Z "
        fill="#B061A6" transform="translate(165,70)" />
    <path
        d="M0 0 C2.81668123 1.11184786 4.97584171 2.05611723 7.375 3.9375 C7.86328125 7.07421875 7.86328125 7.07421875 7.6875 10.625 C7.61982422 12.39423828 7.61982422 12.39423828 7.55078125 14.19921875 C7.49277344 15.10285156 7.43476563 16.00648437 7.375 16.9375 C5.7265625 17.7734375 5.7265625 17.7734375 3.375 17.9375 C1.29035389 16.19929938 -0.43666987 14.55037528 -2.25 12.5625 C-5.56867141 8.78368336 -5.56867141 8.78368336 -9.625 5.9375 C-9.625 5.2775 -9.625 4.6175 -9.625 3.9375 C-3.41414405 -0.08128914 -3.41414405 -0.08128914 0 0 Z "
        fill="#E12574" transform="translate(145.625,36.0625)" />
    <path
        d="M0 0 C6.87845304 1.37569061 6.87845304 1.37569061 10 4 C10.48828125 7.13671875 10.48828125 7.13671875 10.3125 10.6875 C10.26738281 11.86699219 10.22226562 13.04648438 10.17578125 14.26171875 C10.11777344 15.16535156 10.05976563 16.06898438 10 17 C3.375 21 3.375 21 0 21 C0 14.07 0 7.14 0 0 Z "
        fill="#C47728" transform="translate(19,118)" />
    <path
        d="M0 0 C0 7.92 0 15.84 0 24 C-10 18 -10 18 -11.29296875 15 C-11.01401471 7.06530728 -11.01401471 7.06530728 -7.9921875 3.890625 C-2.23035714 0 -2.23035714 0 0 0 Z "
        fill="#E22573" transform="translate(116,84)" />
    <path
        d="M0 0 C2.23044611 1.10164118 4.45935646 2.20621894 6.6875 3.3125 C7.31333984 3.62123047 7.93917969 3.92996094 8.58398438 4.24804688 C12.15420407 6.0238106 15.61309592 7.89532729 19 10 C17.89897254 13.30308238 17.42448773 13.81766643 14.5625 15.5625 C11.65325002 16.92472594 10.39425977 17.0995436 7.24609375 16.3046875 C4.24582838 14.81095652 2.22127354 13.52011958 0 11 C-0.8408104 7.19559243 -0.61308308 3.82836323 0 0 Z "
        fill="#C54727" transform="translate(96,8)" />
    <path
        d="M0 0 C11.30313042 5.30207173 11.30313042 5.30207173 12.984375 9.3984375 C13.17331758 11.64394741 13.12348723 13.75436188 13 16 C13.33 16.66 13.66 17.32 14 18 C9.26525903 16.3003494 5.03832889 13.86340973 0.6875 11.375 C-0.05306641 10.95476562 -0.79363281 10.53453125 -1.55664062 10.1015625 C-3.37269011 9.07051505 -5.18656533 8.03563954 -7 7 C-7 6.01 -7 5.02 -7 4 C-4.69 2.68 -2.38 1.36 0 0 Z "
        fill="#EE373A" transform="translate(56,151)" />
    <path
        d="M0 0 C8.05114347 4.71286447 12.88186183 11.42774245 17.5 19.375 C18.04406494 20.3038501 18.04406494 20.3038501 18.59912109 21.25146484 C19.46728094 22.79812763 20.2423495 24.39630645 21 26 C20.67 26.66 20.34 27.32 20 28 C15.95663924 26.77758861 12.34324942 25.62038468 9 23 C8.51171875 20.08203125 8.51171875 20.08203125 8.6875 16.8125 C8.75517578 15.18248047 8.75517578 15.18248047 8.82421875 13.51953125 C8.88222656 12.68808594 8.94023437 11.85664062 9 11 C8.071875 10.71125 7.14375 10.4225 6.1875 10.125 C3 9 3 9 0 7 C-0.1875 3.375 -0.1875 3.375 0 0 Z "
        fill="#CA2F8F" transform="translate(134,46)" />
    <path d="M0 0 C0 7.26 0 14.52 0 22 C-5 20 -5 20 -9 18 C-9 13.38 -9 8.76 -9 4 C-2.25 0 -2.25 0 0 0 Z " fill="#6C297A"
        transform="translate(173,85)" />
    <path
        d="M0 0 C1.94921875 1.31640625 1.94921875 1.31640625 3.3125 2.4375 C3.3125 3.4275 3.3125 4.4175 3.3125 5.4375 C0.71261448 6.94537377 -1.89190197 8.44395461 -4.5 9.9375 C-5.23798828 10.36675781 -5.97597656 10.79601562 -6.73632812 11.23828125 C-7.44853516 11.64433594 -8.16074219 12.05039063 -8.89453125 12.46875 C-9.5491333 12.84580078 -10.20373535 13.22285156 -10.87817383 13.61132812 C-12.6875 14.4375 -12.6875 14.4375 -15.6875 14.4375 C-16.41072839 11.21584625 -16.58773073 8.63608516 -15.6875 5.4375 C-11.35381204 0.84613329 -6.18815281 -3.13296067 0 0 Z "
        fill="#8F4E9E" transform="translate(139.6875,152.5625)" />
    <path
        d="M0 0 C9.405 2.475 9.405 2.475 19 5 C19 6.32 19 7.64 19 9 C11.74312642 14.0058989 11.74312642 14.0058989 7.69140625 13.9921875 C3.79765349 13.09198044 2.24397798 12.36596698 0 9 C0 6.03 0 3.06 0 0 Z "
        fill="#EC408B" transform="translate(68,158)" />
    <path
        d="M0 0 C1.8125 0.125 1.8125 0.125 4 1 C5.36176922 2.64351457 6.68962066 4.31522656 8 6 C10.26512756 8.08411304 12.61716059 10.05222958 15 12 C10.25 16 10.25 16 8 16 C8 16.66 8 17.32 8 18 C4.40056264 16.66306612 1.26874082 15.00519395 -2 13 C-1.85966889 11.02043559 -1.7125877 9.04134859 -1.5625 7.0625 C-1.48128906 5.96035156 -1.40007813 4.85820312 -1.31640625 3.72265625 C-1 1 -1 1 0 0 Z "
        fill="#F05833" transform="translate(41,139)" />
    <path
        d="M0 0 C5.0261109 0.53676912 8.62239409 2.94418501 12.8125 5.5625 C13.50537109 5.98724609 14.19824219 6.41199219 14.91210938 6.84960938 C16.61216951 7.89309456 18.30665476 8.94565296 20 10 C15.11363636 14.97159091 15.11363636 14.97159091 11 16 C6.67993545 14.39336442 3.24545896 12.27944282 0 9 C-0.91114236 5.80345084 -0.7232625 3.22180567 0 0 Z "
        fill="#EE3839" transform="translate(124,25)" />
    <path
        d="M0 0 C2.9719385 1.12451727 5.33440687 2.22293791 8 4 C8.83503983 7.4188225 8.75778679 10.57114914 8 14 C6.05160189 16.52145637 3.98251311 17.90312534 1 19 C-1.9375 18.8125 -1.9375 18.8125 -4 18 C-1.9 1.9 -1.9 1.9 0 0 Z "
        fill="#8F509F" transform="translate(164,103)" />
    <path
        d="M0 0 C2.66015625 1.171875 2.66015625 1.171875 5 3 C5.48828125 5.91796875 5.48828125 5.91796875 5.3125 9.1875 C5.24482422 10.81751953 5.24482422 10.81751953 5.17578125 12.48046875 C5.11777344 13.31191406 5.05976562 14.14335938 5 15 C-1.03523728 11.72591106 -7.05469543 8.43506486 -13 5 C-13 4.34 -13 3.68 -13 3 C-5.65873016 -1.8452381 -5.65873016 -1.8452381 0 0 Z "
        fill="#C02026" transform="translate(119,54)" />
    <path
        d="M0 0 C0.47577763 3.77318094 0.69492449 7.24635482 0 11 C-2.26252822 13.59113351 -4.6949212 15.05913815 -8 16 C-12.00133273 15.49225513 -14.74834103 13.29094155 -18 11 C-15.21629142 7.73171993 -11.56811335 5.87542089 -7.875 3.8125 C-7.22917969 3.44447266 -6.58335938 3.07644531 -5.91796875 2.69726562 C-1.14395872 0 -1.14395872 0 0 0 Z "
        fill="#D14A9B" transform="translate(124,123)" />
    <path
        d="M0 0 C2.43853057 1.28975172 4.87584412 2.58171525 7.3125 3.875 C8.34793945 4.42220703 8.34793945 4.42220703 9.40429688 4.98046875 C10.40493164 5.51220703 10.40493164 5.51220703 11.42578125 6.0546875 C12.34484253 6.54171143 12.34484253 6.54171143 13.2824707 7.03857422 C14.90258648 7.94547058 16.45515434 8.9701029 18 10 C18 10.66 18 11.32 18 12 C11.81818182 16 11.81818182 16 8.4375 16 C2.71578947 13.65263158 2.71578947 13.65263158 0 11 C-0.51935762 7.28418362 -0.34700956 3.72713968 0 0 Z "
        fill="#D31F26" transform="translate(68,123)" />
    <path
        d="M0 0 C-0.61620855 2.79387762 -1.24249695 5.58480926 -1.875 8.375 C-2.04902344 9.1690625 -2.22304688 9.963125 -2.40234375 10.78125 C-2.57636719 11.54179688 -2.75039063 12.30234375 -2.9296875 13.0859375 C-3.08679199 13.7876709 -3.24389648 14.4894043 -3.40576172 15.21240234 C-4 17 -4 17 -6 19 C-10.12652068 17.1946472 -10.12652068 17.1946472 -12 15 C-13.03341073 11.13955763 -13.0593188 7.85569262 -12 4 C-8.44370915 0.01795602 -5.11147929 -1.47379649 0 0 Z "
        fill="#FECF29" transform="translate(33,70)" />
    <path d="M0 0 C0 6.6 0 13.2 0 20 C-5 18 -5 18 -9 16 C-9 12.04 -9 8.08 -9 4 C-2.25 0 -2.25 0 0 0 Z " fill="#F6965D"
        transform="translate(58,86)" />
    <path
        d="M0 0 C0.33 0 0.66 0 1 0 C1.06058594 0.91523437 1.12117188 1.83046875 1.18359375 2.7734375 C1.26738281 3.96195313 1.35117187 5.15046875 1.4375 6.375 C1.51871094 7.55835938 1.59992187 8.74171875 1.68359375 9.9609375 C1.81084936 12.91518901 1.81084936 12.91518901 3 15 C1.59104764 17.61788643 0.13756909 20.11045672 -1.4375 22.625 C-1.87126953 23.33140625 -2.30503906 24.0378125 -2.75195312 24.765625 C-3.82748132 26.51483568 -4.91283725 28.25799654 -6 30 C-6.99 29.67 -7.98 29.34 -9 29 C-9.47517204 25.23162176 -9.72334744 21.74533229 -9 18 C-7.25390625 16.61328125 -7.25390625 16.61328125 -5.0625 15.625 C-2.78848301 14.68360051 -2.78848301 14.68360051 -1 13 C0.02830137 8.65769113 0.10420738 4.44835234 0 0 Z "
        fill="#FAE83C" transform="translate(39,40)" />
    <path
        d="M0 0 C4.58630083 0.5395648 7.67445469 1.75179296 11 5 C11.51935762 8.71581638 11.34700956 12.27286032 11 16 C9.68 16 8.36 16 7 16 C5.078125 13.515625 5.078125 13.515625 3.25 10.25 C2.63640625 9.18265625 2.0228125 8.1153125 1.390625 7.015625 C0 4 0 4 0 0 Z "
        fill="#CB3192" transform="translate(151,53)" />
    <path
        d="M0 0 C0.99 0.33 1.98 0.66 3 1 C3.28328822 4.70792809 3.45269973 8.30204313 3 12 C0.54305747 14.26297338 -0.6796254 15 -4 15 C-2.07289294 4.44191344 -2.07289294 4.44191344 0 0 Z "
        fill="#FECC29" transform="translate(37,73)" />
    <path
        d="M0 0 C2.46875295 1.17291374 4.67672947 2.54226163 7 4 C7 4.99 7 5.98 7 7 C1.72684667 6.5547115 -3.01770224 5.91626837 -8 4 C-7.67 3.01 -7.34 2.02 -7 1 C-4.35433591 -0.32283205 -2.9602607 -0.32891786 0 0 Z "
        fill="#EC418B" transform="translate(80,151)" />
    <path
        d="M0 0 C2.0625 1.5 2.0625 1.5 3.0625 4.5 C1.4813708 5.00692692 -0.10251383 5.50526443 -1.6875 6 C-2.56921875 6.2784375 -3.4509375 6.556875 -4.359375 6.84375 C-6.9375 7.5 -6.9375 7.5 -10.9375 7.5 C-10.9375 6.51 -10.9375 5.52 -10.9375 4.5 C-7.68000384 1.48499735 -4.46441925 -0.75990115 0 0 Z "
        fill="#9C3995" transform="translate(116.9375,150.5)" />
    <path
        d="M0 0 C0 2.31 0 4.62 0 7 C-4.95 9.475 -4.95 9.475 -10 12 C-10 8 -10 8 -8.5390625 6.11328125 C-7.90742187 5.51902344 -7.27578125 4.92476562 -6.625 4.3125 C-5.99851562 3.71050781 -5.37203125 3.10851563 -4.7265625 2.48828125 C-1.83989501 0 -1.83989501 0 0 0 Z "
        fill="#FECE29" transform="translate(58,46)" />
    <path
        d="M0 0 C4.67248931 2.82522609 7.65996398 5.67760044 11 10 C10.34 10.66 9.68 11.32 9 12 C6.03 10.35 3.06 8.7 0 7 C0 4.69 0 2.38 0 0 Z "
        fill="#E02472" transform="translate(134,46)" />
    <path
        d="M0 0 C0 0.99 0 1.98 0 3 C-6.25824176 7.04945055 -6.25824176 7.04945055 -9.8125 6.8125 C-12 6 -12 6 -14 5 C-14 4.34 -14 3.68 -14 3 C-12.4188708 2.49307308 -10.83498617 1.99473557 -9.25 1.5 C-7.92742187 1.08234375 -7.92742187 1.08234375 -6.578125 0.65625 C-4 0 -4 0 0 0 Z "
        fill="#F9A22E" transform="translate(86,34)" />
    <path
        d="M0 0 C0.66 0.33 1.32 0.66 2 1 C1.52372025 2.95903745 1.04388577 4.91721097 0.5625 6.875 C0.29566406 7.96554688 0.02882812 9.05609375 -0.24609375 10.1796875 C-1 13 -1 13 -2 15 C-2.66 15 -3.32 15 -4 15 C-4 10.71 -4 6.42 -4 2 C-2.68 1.34 -1.36 0.68 0 0 Z "
        fill="#90509F" transform="translate(157,104)" />
    <path
        d="M0 0 C2.67550292 2.67550292 2.83209389 4.94879894 3.625 8.625 C3.88539063 9.81351563 4.14578125 11.00203125 4.4140625 12.2265625 C4.70410156 13.59941406 4.70410156 13.59941406 5 15 C3.02 14.34 1.04 13.68 -1 13 C-1.02686553 11.02090602 -1.04633375 9.04171029 -1.0625 7.0625 C-1.07410156 5.96035156 -1.08570313 4.85820313 -1.09765625 3.72265625 C-1 1 -1 1 0 0 Z "
        fill="#B161A6" transform="translate(154,73)" />
</svg>