<?xml version="1.0" encoding="UTF-8"?>
<svg version="1.1" xmlns="http://www.w3.org/2000/svg" width="175" height="119">
    <path
        d="M0 0 C0 6.6 0 13.2 0 20 C-1.50949219 20.845625 -3.01898438 21.69125 -4.57421875 22.5625 C-6.61228777 23.70778433 -8.65002669 24.85365623 -10.6875 26 C-11.73719971 26.58998779 -12.78689941 27.17997559 -13.8684082 27.7878418 C-20.57020583 31.57302538 -27.14002148 35.48431721 -33.57421875 39.70703125 C-36 41 -36 41 -40 41 C-40.24453905 38.11987347 -40.42157916 35.260522 -40.5625 32.375 C-40.63791016 31.56675781 -40.71332031 30.75851563 -40.79101562 29.92578125 C-40.88469977 27.36508127 -40.78974494 25.44278948 -40 23 C-37.38865377 20.29739705 -34.30706377 18.73347666 -31 17 C-29.11085754 15.90557966 -27.22287355 14.80915763 -25.3359375 13.7109375 C-23.3509683 12.59537434 -21.36396059 11.48343116 -19.375 10.375 C-17.38276083 9.25790465 -15.39057209 8.14071934 -13.3984375 7.0234375 C-12.46999023 6.50491211 -11.54154297 5.98638672 -10.58496094 5.45214844 C-8.33016508 4.18547619 -6.08886238 2.89876289 -3.8515625 1.6015625 C-1 0 -1 0 0 0 Z "
        fill="#33BBE8" transform="translate(130,78)" />
    <path
        d="M0 0 C2.42094565 1.31597275 4.8400935 2.63513554 7.2578125 3.95703125 C10.12380071 5.52399475 12.99514188 7.08088871 15.8671875 8.63671875 C17.61988736 9.59097008 19.3724909 10.54539837 21.125 11.5 C21.9593457 11.95028564 22.79369141 12.40057129 23.65332031 12.86450195 C25.29817462 13.76288782 26.93456268 14.67696203 28.56176758 15.60693359 C30.2221743 16.55559493 31.90315768 17.46891954 33.6003418 18.35009766 C39.59244086 21.74905911 39.59244086 21.74905911 40.70410156 25.16113281 C40.88668659 27.62858075 40.79225815 29.91246389 40.5625 32.375 C40.5015918 33.62216797 40.5015918 33.62216797 40.43945312 34.89453125 C40.33405499 36.93222845 40.17262221 38.96689395 40 41 C35.9282692 40.40207292 32.96414321 39.07541349 29.39453125 37.05078125 C28.32783203 36.44943359 27.26113281 35.84808594 26.16210938 35.22851562 C25.05673828 34.59623047 23.95136719 33.96394531 22.8125 33.3125 C21.72646484 32.69955078 20.64042969 32.08660156 19.52148438 31.45507812 C17.3677848 30.23529512 15.22238392 29.00073219 13.0859375 27.75097656 C10.0512023 25.98005334 10.0512023 25.98005334 6.9921875 24.56933594 C4.31823396 23.23141096 2.16796704 22.06095002 0 20 C-1.17275713 16.45735003 -0.96633435 13.30615964 -0.625 9.625 C-0.57988281 8.69816406 -0.53476562 7.77132812 -0.48828125 6.81640625 C-0.37081397 4.537541 -0.20714078 2.27217498 0 0 Z "
        fill="#0496D4" transform="translate(45,78)" />
    <path
        d="M0 0 C3.12213821 1.47135249 6.17825249 2.91884052 9.22265625 4.51953125 C11.83515639 5.8927464 14.45600706 7.21910914 17.11669922 8.49755859 C37.37895304 18.32567391 37.37895304 18.32567391 40.12255859 24.54443359 C41.15518607 30.22127442 40.34592813 35.44281228 39 41 C34.81172642 39.7263797 31.24155204 38.15068846 27.48046875 35.91796875 C25.94616211 35.01401367 25.94616211 35.01401367 24.38085938 34.09179688 C23.32705078 33.46337891 22.27324219 32.83496094 21.1875 32.1875 C19.09816855 30.9509569 17.00833241 29.71526611 14.91796875 28.48046875 C13.92071777 27.89056152 12.9234668 27.3006543 11.89599609 26.69287109 C7.96581227 24.39545964 3.99116709 22.18951173 0 20 C0 13.4 0 6.8 0 0 Z "
        fill="#0395D4" transform="translate(0,52)" />
    <path
        d="M0 0 C0.24432377 3.04650632 0.42155414 6.07341019 0.5625 9.125 C0.63791016 9.9809375 0.71332031 10.836875 0.79101562 11.71875 C0.88346898 14.38962465 0.79176382 16.4429968 0 19 C-2.59580716 21.74001867 -5.67163309 23.27712283 -9 25 C-10.91310002 26.10523611 -12.82450225 27.21341516 -14.734375 28.32421875 C-16.73757754 29.44889259 -18.74281411 30.56995069 -20.75 31.6875 C-22.76593181 32.81585828 -24.78156735 33.94474607 -26.796875 35.07421875 C-28.11703613 35.81031372 -28.11703613 35.81031372 -29.46386719 36.5612793 C-31.23133224 37.5639431 -32.97564681 38.60805908 -34.70019531 39.68286133 C-37 41 -37 41 -39 41 C-40.32914019 34.64295071 -41.47840187 28.1978644 -39 22 C-33.8439322 16.53932112 -26.55788341 13.55701795 -19.86083984 10.39599609 C-15.81842329 8.42342929 -12.05025859 6.08488851 -8.25 3.6875 C-2.30416048 0 -2.30416048 0 0 0 Z "
        fill="#33BCE9" transform="translate(175,52)" />
    <path
        d="M0 0 C1.05850889 6.30531529 2.13390865 12.82654678 0 19 C-4.43566393 24.30074809 -11.43635644 28.00521084 -18 30 C-22.8433424 29.96438719 -26.23919595 28.04521126 -30.375 25.625 C-31.43460938 25.01914063 -32.49421875 24.41328125 -33.5859375 23.7890625 C-34.38257813 23.19867188 -35.17921875 22.60828125 -36 22 C-36 21.01 -36 20.02 -36 19 C-35.30519531 18.63390625 -34.61039063 18.2678125 -33.89453125 17.890625 C-25.48399783 13.41353497 -17.21536393 8.71490942 -8.9855957 3.91308594 C-7.6720813 3.15366699 -7.6720813 3.15366699 -6.33203125 2.37890625 C-5.54546143 1.9207251 -4.7588916 1.46254395 -3.94848633 0.99047852 C-2 0 -2 0 0 0 Z "
        fill="#33BBE8" transform="translate(85,52)" />
    <path
        d="M0 0 C1.54304254 12.3443403 1.54304254 12.3443403 0 18 C-3.77056803 22.09182719 -7.99937454 23.84775865 -13 26 C-14.29323775 27.01884228 -15.5852246 28.03927818 -16.875 29.0625 C-19.25002896 29.88116528 -20.51193878 30.17179005 -22.90673828 29.32885742 C-23.53821777 28.96638916 -24.16969727 28.6039209 -24.8203125 28.23046875 C-25.50625488 27.83915771 -26.19219727 27.44784668 -26.89892578 27.04467773 C-30.00869541 25.1284439 -33.01177915 23.10109279 -36 21 C-34.73448683 17.20346049 -33.599516 16.92746282 -30.15234375 15.0390625 C-29.15396484 14.48476562 -28.15558594 13.93046875 -27.12695312 13.359375 C-26.07443359 12.78703125 -25.02191406 12.2146875 -23.9375 11.625 C-21.88317403 10.49389406 -19.8297712 9.36110973 -17.77734375 8.2265625 C-16.78976074 7.68418945 -15.80217773 7.14181641 -14.78466797 6.58300781 C-11.66585696 4.81004879 -8.67699204 2.8919822 -5.72094727 0.86083984 C-4 0 -4 0 0 0 Z "
        fill="#32BCE9" transform="translate(85,0)" />
    <path
        d="M0 0 C4.45233453 0.59457931 7.6385779 2.28922455 11.5078125 4.52734375 C12.115112 4.87632217 12.7224115 5.2253006 13.34811401 5.58485413 C15.27759785 6.69587482 17.20122789 7.81662451 19.125 8.9375 C20.42542322 9.68747011 21.72620115 10.43682552 23.02734375 11.18554688 C32.3236472 16.54909813 32.3236472 16.54909813 36 19 C36 19.66 36 20.32 36 21 C33.63415582 22.70221745 31.29601902 24.23909634 28.8125 25.75 C27.80219727 26.40548828 27.80219727 26.40548828 26.77148438 27.07421875 C21.75815438 30.13601834 21.75815438 30.13601834 18.49609375 29.55078125 C17.26052734 28.78314453 17.26052734 28.78314453 16 28 C15.41516846 27.66693848 14.83033691 27.33387695 14.2277832 26.99072266 C12.21258078 25.84082614 10.23086291 24.64548287 8.25 23.4375 C7.56550781 23.02564453 6.88101563 22.61378906 6.17578125 22.18945312 C1.14773261 19.14773261 1.14773261 19.14773261 0 18 C-0.08631874 16.65732587 -0.10706473 15.31025678 -0.09765625 13.96484375 C-0.09443359 13.15595703 -0.09121094 12.34707031 -0.08789062 11.51367188 C-0.07951172 10.66353516 -0.07113281 9.81339844 -0.0625 8.9375 C-0.05798828 8.08349609 -0.05347656 7.22949219 -0.04882812 6.34960938 C-0.03700373 4.23304337 -0.01906769 2.11651315 0 0 Z "
        fill="#0596D4" transform="translate(90,0)" />
    <path
        d="M0 0 C3.28968973 1.26356787 6.38580175 2.66438012 9.4765625 4.35546875 C10.30768555 4.80994385 11.13880859 5.26441895 11.99511719 5.73266602 C13.29690918 6.45280884 13.29690918 6.45280884 14.625 7.1875 C15.51348633 7.67855225 16.40197266 8.16960449 17.31738281 8.67553711 C31.97038992 16.82991684 31.97038992 16.82991684 36 20 C36 20.66 36 21.32 36 22 C33.78045349 23.37257477 31.55164591 24.72259151 29.3125 26.0625 C28.37374023 26.64741211 28.37374023 26.64741211 27.41601562 27.24414062 C24.77733378 28.80524559 22.70454094 30.00343121 19.59375 29.98828125 C18.7378125 29.66214844 17.881875 29.33601563 17 29 C16.34733154 28.75934814 15.69466309 28.51869629 15.0222168 28.27075195 C9.55559336 26.09332238 3.87165895 23.54788966 0 19 C-2.06422245 12.84851413 -0.98644009 6.27969053 0 0 Z "
        fill="#0596D4" transform="translate(90,52)" />
    <path
        d="M0 0 C1.11702695 6.30369011 2.25682831 12.84455727 0 19 C-4.72532731 24.32795526 -12.14693841 28.18742884 -19 30 C-21.71875 29.48046875 -21.71875 29.48046875 -24 28 C-25.02738281 27.4534375 -26.05476563 26.906875 -27.11328125 26.34375 C-28.69689453 25.43109375 -28.69689453 25.43109375 -30.3125 24.5 C-31.91544922 23.58734375 -31.91544922 23.58734375 -33.55078125 22.65625 C-34.76314453 21.83640625 -34.76314453 21.83640625 -36 21 C-36 20.34 -36 19.68 -36 19 C-35.21351074 18.56655273 -34.42702148 18.13310547 -33.61669922 17.68652344 C-30.67461549 16.0634544 -27.7338591 14.43802905 -24.79394531 12.81103516 C-23.52590767 12.10990391 -22.25736154 11.40969144 -20.98828125 10.71044922 C-19.15487478 9.70005776 -17.32337654 8.6862785 -15.4921875 7.671875 C-14.39245605 7.0644043 -13.29272461 6.45693359 -12.15966797 5.83105469 C-8.93575398 4.01943211 -8.93575398 4.01943211 -5.78173828 1.77050781 C-3 0 -3 0 0 0 Z "
        fill="#33BCE9" transform="translate(39,26)" />
    <path
        d="M0 0 C3.44249575 0.66999917 6.07195183 2.02650801 9.10546875 3.765625 C10.08966797 4.32636719 11.07386719 4.88710938 12.08789062 5.46484375 C13.11076172 6.05394531 14.13363281 6.64304687 15.1875 7.25 C17.20166368 8.40132028 19.21598454 9.55236564 21.23046875 10.703125 C22.19903809 11.25806641 23.16760742 11.81300781 24.16552734 12.38476562 C28.09236905 14.62249041 32.04202316 16.81791879 36 19 C34.62787125 23.11638626 31.88774801 24.24607225 28.3125 26.3125 C27.69955078 26.69728516 27.08660156 27.08207031 26.45507812 27.47851562 C23.37608388 29.2710584 21.58490583 30.10942902 18.03515625 29.4453125 C17.03355469 28.96835937 16.03195313 28.49140625 15 28 C14.3819751 27.76337646 13.7639502 27.52675293 13.12719727 27.28295898 C8.26892944 25.38520741 3.28171742 23.17757851 0 19 C-1.84840255 12.8333808 -0.86125776 6.27123244 0 0 Z "
        fill="#0595D3" transform="translate(136,26)" />
    <path
        d="M0 0 C1.11702695 6.30369011 2.25682831 12.84455727 0 19 C-4.72532731 24.32795526 -12.14693841 28.18742884 -19 30 C-21.71875 29.48046875 -21.71875 29.48046875 -24 28 C-25.02738281 27.4534375 -26.05476563 26.906875 -27.11328125 26.34375 C-28.69689453 25.43109375 -28.69689453 25.43109375 -30.3125 24.5 C-31.91544922 23.58734375 -31.91544922 23.58734375 -33.55078125 22.65625 C-34.76314453 21.83640625 -34.76314453 21.83640625 -36 21 C-36 20.34 -36 19.68 -36 19 C-35.33935547 18.64663574 -34.67871094 18.29327148 -33.99804688 17.92919922 C-26.03296178 13.63180352 -18.27735116 9.03185388 -10.546875 4.328125 C-9.14695312 3.48894531 -9.14695312 3.48894531 -7.71875 2.6328125 C-6.88279297 2.12637207 -6.04683594 1.61993164 -5.18554688 1.09814453 C-3 0 -3 0 0 0 Z "
        fill="#33BCE8" transform="translate(130,26)" />
    <path
        d="M0 0 C4.23390518 1.28367571 7.82652758 2.89176869 11.625 5.15234375 C12.66140625 5.76400391 13.6978125 6.37566406 14.765625 7.00585938 C16.36664063 7.96202148 16.36664063 7.96202148 18 8.9375 C20.12399842 10.19830341 22.24896894 11.4574709 24.375 12.71484375 C25.31085938 13.27292725 26.24671875 13.83101074 27.2109375 14.40600586 C30.09086408 16.05193029 33.02044943 17.54345901 36 19 C34.61876938 23.14369185 31.80496934 24.21403736 28.1875 26.25 C27.55779297 26.62640625 26.92808594 27.0028125 26.27929688 27.390625 C21.69622938 30.00677266 21.69622938 30.00677266 18.9921875 29.98046875 C15.90168776 28.45945809 12.90672763 26.80457021 9.9375 25.0625 C9.31294922 24.70220703 8.68839844 24.34191406 8.04492188 23.97070312 C5.30710791 22.38411509 2.63364041 20.75576028 0 19 C-0.34057617 17.02880859 -0.34057617 17.02880859 -0.29296875 14.6484375 C-0.28330078 13.79765625 -0.27363281 12.946875 -0.26367188 12.0703125 C-0.23853516 11.18085937 -0.21339844 10.29140625 -0.1875 9.375 C-0.17396484 8.4778125 -0.16042969 7.580625 -0.14648438 6.65625 C-0.11106925 4.43690211 -0.06168461 2.21874812 0 0 Z "
        fill="#0496D4" transform="translate(45,26)" />
    <path
        d="M0 0 C3.24760839 1.27437798 6.23154471 2.83696928 9.28125 4.53125 C10.1774707 5.0252832 10.1774707 5.0252832 11.09179688 5.52929688 C12.55408998 6.33648267 14.0118899 7.15179917 15.46875 7.96875 C15.46875 8.95875 15.46875 9.94875 15.46875 10.96875 C13.76396409 11.93337975 12.05473588 12.89016054 10.34375 13.84375 C9.39242187 14.37742187 8.44109375 14.91109375 7.4609375 15.4609375 C-0.28585492 19.36467363 -0.28585492 19.36467363 -3.40966797 18.37158203 C-5.47988577 17.37484815 -7.43518136 16.27409924 -9.40625 15.09375 C-10.09460938 14.70316406 -10.78296875 14.31257813 -11.4921875 13.91015625 C-13.1822836 12.94774042 -14.85826917 11.96061904 -16.53125 10.96875 C-16.53125 9.97875 -16.53125 8.98875 -16.53125 7.96875 C-14.31170349 6.59617523 -12.08289591 5.24615849 -9.84375 3.90625 C-9.21791016 3.51630859 -8.59207031 3.12636719 -7.94726562 2.72460938 C-5.24206487 1.12415029 -3.18626849 -0.03933665 0 0 Z "
        fill="#A9ACAD" transform="translate(133.53125,50.03125)" />
    <path
        d="M0 0 C3.45599283 1.06982945 6.38972729 2.65401516 9.55078125 4.41015625 C10.44700195 4.90418945 10.44700195 4.90418945 11.36132812 5.40820312 C12.82362123 6.21538892 14.28142115 7.03070542 15.73828125 7.84765625 C14.3661525 11.96404251 11.62602926 13.0937285 8.05078125 15.16015625 C7.43783203 15.54494141 6.82488281 15.92972656 6.19335938 16.32617188 C3.04257364 18.16051055 1.27878451 18.94810376 -2.3515625 18.2734375 C-5.32291888 16.8176723 -8.25057603 15.34171192 -11.13671875 13.72265625 C-12.10351562 13.18382812 -13.0703125 12.645 -14.06640625 12.08984375 C-14.79085938 11.67992187 -15.5153125 11.27 -16.26171875 10.84765625 C-16.26171875 9.85765625 -16.26171875 8.86765625 -16.26171875 7.84765625 C-15.50246094 7.43773437 -14.74320313 7.0278125 -13.9609375 6.60546875 C-12.96707031 6.06664062 -11.97320312 5.5278125 -10.94921875 4.97265625 C-9.47001953 4.17214844 -9.47001953 4.17214844 -7.9609375 3.35546875 C-1.74385241 -0.11746156 -1.74385241 -0.11746156 0 0 Z "
        fill="#AAACAD" transform="translate(42.26171875,50.15234375)" />
    <path
        d="M0 0 C3.79049707 1.42749981 7.27122456 3.16236542 10.8125 5.125 C11.78832031 5.66382812 12.76414062 6.20265625 13.76953125 6.7578125 C14.50558594 7.16773437 15.24164063 7.57765625 16 8 C16 9.32 16 10.64 16 12 C13.96849724 13.20865372 11.92781675 14.39105566 9.875 15.5625 C8.73804687 16.22378906 7.60109375 16.88507813 6.4296875 17.56640625 C2.52349055 19.19917878 0.99136157 19.26490553 -3 18 C-5.95703125 16.44140625 -5.95703125 16.44140625 -8.8125 14.5625 C-9.76769531 13.94503906 -10.72289063 13.32757813 -11.70703125 12.69140625 C-14 11 -14 11 -15 9 C-13.50146484 8.15115234 -13.50146484 8.15115234 -11.97265625 7.28515625 C-10.66922254 6.5443558 -9.36583975 5.80346575 -8.0625 5.0625 C-7.40314453 4.68931641 -6.74378906 4.31613281 -6.06445312 3.93164062 C-2.84167167 2.23037187 -2.84167167 2.23037187 0 0 Z "
        fill="#AAACAD" transform="translate(86,76)" />
    <path
        d="M0 0 C3.2109375 1.62890625 3.2109375 1.62890625 6.375 3.5625 C7.43460938 4.20316406 8.49421875 4.84382813 9.5859375 5.50390625 C10.38257812 5.99761719 11.17921875 6.49132812 12 7 C10.32105931 12.03682206 5.40028419 14.33586523 0.859375 16.70703125 C-2.20553 17.99683268 -2.96597818 18.00671892 -6.421875 17.32421875 C-11.44990223 14.80395137 -15.65770864 11.54921464 -20 8 C-17.77694458 6.50343328 -15.54980387 5.01428474 -13.3125 3.5390625 C-11.62259682 2.41436343 -9.95915224 1.24962138 -8.3125 0.0625 C-5.11404553 -1.40706016 -3.40409616 -0.8254831 0 0 Z "
        fill="#A9ADAD" transform="translate(91,25)" />
</svg>